<svg id="Space" xmlns="http://www.w3.org/2000/svg" viewBox="0 0 1200 1200"><defs><style>.cls-1{fill:#283655;}.cls-2{fill:#010101;}.cls-19,.cls-2,.cls-49{opacity:0.1;}.cls-3{fill:#5eaade;}.cls-4{fill:#3d8cb0;}.cls-5{fill:#fff;}.cls-6{fill:#0f171f;}.cls-7{fill:#e43d25;}.cls-8{fill:#f0512f;}.cls-9{fill:#9edbf0;}.cls-10{fill:#d2d3d4;}.cls-11{fill:#f15c4d;}.cls-12{fill:#7cd0e0;}.cls-13{fill:#f1607f;}.cls-14{fill:#002c40;}.cls-15{fill:#d8f0fa;}.cls-16{fill:#f9a040;}.cls-17{fill:#fee03e;}.cls-18{fill:#273554;}.cls-20{fill:#ecc200;}.cls-21{fill:#57c6ce;}.cls-22{fill:#90ecff;}.cls-23{fill:#0c161e;}.cls-24{fill:#61c9d6;}.cls-25{fill:#76d8e5;}.cls-26{fill:#231f20;}.cls-27{fill:#ff4f54;}.cls-28{fill:#0096af;}.cls-29{fill:#047d89;}.cls-30{fill:#bcbec0;}.cls-31{fill:#939598;}.cls-32{fill:#f1f2f2;}.cls-33{fill:#53a2d3;}.cls-34{fill:#ccefff;}.cls-35{fill:#e6e7e8;}.cls-36{fill:#6d6e71;}.cls-37{fill:#3c3b3d;}.cls-38{fill:#ff8d07;}.cls-39{fill:#ffb50f;}.cls-40{fill:#ffd66e;}.cls-41{fill:#ff886e;}.cls-42{fill:#ffbd66;}.cls-43{fill:#ff5b74;}.cls-44{fill:#46bbeb;}.cls-45{fill:#4fffa8;}.cls-46{fill:#ffd26e;}.cls-47{fill:#ea4753;}.cls-48{fill:#d83a4e;}.cls-50{fill:#ffdf3c;}.cls-51{fill:#ff8948;}.cls-52{fill:#036166;}.cls-53{fill:#d1f4ff;}.cls-54{fill:#a6cddd;}.cls-55{fill:#e03643;}.cls-56{fill:#ededed;}.cls-57{fill:#bae3ff;}.cls-58{fill:#ff4d26;}.cls-59{fill:#d1d3d4;}.cls-60{fill:#f4c18a;}.cls-61{fill:#efb576;}.cls-62{fill:#e8b276;}.cls-63{fill:#fee3c5;}.cls-64{fill:#fec689;}.cls-65{fill:#c18448;}.cls-66{fill:#72dae8;}.cls-67{fill:#d5f6ff;}.cls-68{fill:#56c8d1;}.cls-69{fill:#a7a9ac;}.cls-70{fill:#414042;}.cls-71{fill:#58595b;}.cls-72{fill:#808285;}.cls-73{fill:#a3dfff;}.cls-74{fill:#3a3a3a;}</style></defs><title>meteors</title><g id="Uranus"><rect id="Background" class="cls-1" width="240" height="240"/><polygon id="Shadow" class="cls-2" points="240 138.42 174.04 73.52 66.28 166.86 140.54 240 240 240 240 138.42"/><g id="Uranus-2" data-name="Uranus"><g id="Uranus-3" data-name="Uranus"><path class="cls-3" d="M190.53,130.37a71.29,71.29,0,1,1-60.16-80.9A71.3,71.3,0,0,1,190.53,130.37Z"/><path class="cls-3" d="M190.53,130.37a71.29,71.29,0,1,1-60.16-80.9A71.3,71.3,0,0,1,190.53,130.37Z"/><path class="cls-4" d="M191.27,118.23c0-1.36-.1-2.71-.21-4.06l-1.93.92Z"/><path class="cls-4" d="M88.78,73.25A17.44,17.44,0,0,0,92,74.32l1.41-1.51-4.33-6-3.63,1.72,3.14,4.62Z"/><path class="cls-4" d="M138.46,121.17c-.32,4.53-3.8,5.3-9.14,3s-13.17,3.28-14.18,7.31c0,0-.2,4.06-.65,9.14s6.76,3.7,9.78.18,5-6.74,8.32-7.05,7.41,1,11.28,2,1.07-11.17-1.31-15.14S138.77,116.64,138.46,121.17Z"/><path class="cls-4" d="M177.51,140.11c-.61,8.71-7.31,10.19-17.58,5.72-6.58-2.87-15.12.53-20.92,5.38l-.28-.33L125.24,158l-10.39,10.64,7.29,11.25,5,5.67-3,5.63a71.07,71.07,0,0,0,35.45-11.85l-8-3c5.12-6.16,8.78-11.5,14.73-12.06a32.57,32.57,0,0,1,9.11.69,70.83,70.83,0,0,0,12.08-21.77,30,30,0,0,0-2-4.25C180.83,131.29,178.11,131.4,177.51,140.11Z"/><path class="cls-4" d="M145,74.5c1.1-4.39-10.05-12.63-13.87-15s-9.59,3-10.39,4.24c-3.48,5.61,5.72,10.25,6.64,11.77S143.93,78.89,145,74.5Z"/><path class="cls-4" d="M134.89,97.12c-1.92,2.8,6.47,4.78,6.47,4.78s6.39,2.7,8.88.53,0-7.79-4.32-10S136.81,94.31,134.89,97.12Z"/><path class="cls-4" d="M96.65,129.44c-4.32-2.18-9.11,1.86-11,4.66s6.47,4.79,6.47,4.79,6.38,2.69,8.87.52S101,131.62,96.65,129.44Z"/><path class="cls-4" d="M162.57,127.26c-4.32-2.18-9.11,1.85-11,4.66s6.47,4.79,6.47,4.79,6.38,2.69,8.88.52S166.89,129.44,162.57,127.26Z"/><path class="cls-4" d="M169.4,86.71c2.49-2.18,0-7.79-4.31-10s-9.11,1.85-11,4.66,6.46,4.78,6.46,4.78S166.91,88.88,169.4,86.71Z"/><path class="cls-4" d="M108.37,104.42c-4.33-2.18-9.11,1.86-11,4.66s6.47,4.79,6.47,4.79,6.38,2.7,8.87.52S112.69,106.6,108.37,104.42Z"/><path class="cls-4" d="M70.1,104.11c-9.29.1-13.89,11.19-14.69,17.66s15.25,2.46,15.25,2.46,13.25-1,15.58-6.93S79.39,104,70.1,104.11Z"/><path class="cls-4" d="M86.23,173.2l8.32,2.09,2-2.52,6.15-1.28,1.92,2.1,3.39-3-3.09-7.92-3.41-2.17-1.69.94-5.52,3.08-9.82-5.09L81.77,164l-3.14-7,6.55-.61,6.28,3.45,3.32-2,8.81.9-5.08-9-8-2-4.47,4.34-2.16-4.87-7.57-2.44a73.16,73.16,0,0,0-18.13,10.76,71.6,71.6,0,0,0,21.34,23.16l.62-.82Z"/><path class="cls-4" d="M182.68,95l5.4,5.49-.8,3.18-10.05.31-.8,6.94-4.49-4.58-6.17,2.85,2.12,5.8,5,2,10.41-4.73,1.67,3.81s-2.52,3.32-1.24,5c1.16,1.48,6.36,4.59,7.33,5.17a71.67,71.67,0,0,0,.26-8l-2.14-3.14,1.93-.92a71,71,0,0,0-6-23.38Z"/><path class="cls-4" d="M79.59,65.77l1.67,3.8s-2.52,3.32-1.24,5h0c-2.74,1.61-4.93,4-5.43,6,0,0-.2,4.07-.65,9.15s6.76,3.7,9.78.18,5-6.74,8.32-7.06,7.41,1,11.28,2S104.4,73.63,102,69.65c-.2-.34-.4-.64-.58-.92-.17-.61-.35-1.22-.53-1.83,4.93.57,11.56.31,12.26-2.49.92-3.65-6.63-10-11.4-13.34A71.59,71.59,0,0,0,68.84,70.36l.34.13Zm9.51,1.07,4.33,6L92,74.32a17.44,17.44,0,0,1-3.24-1.07l-.17-.07-3.14-4.62Z"/><path class="cls-2" d="M190.53,130.37A71.12,71.12,0,0,0,174,73.52,71.29,71.29,0,0,1,50.9,137.58a71.3,71.3,0,0,0,139.63-7.21Z"/></g><g id="Star"><path class="cls-5" d="M206.73,71.08a7.21,7.21,0,0,1-9.68-3.21,7.21,7.21,0,0,1-3.2,9.68,7.2,7.2,0,0,1,9.67,3.21A7.22,7.22,0,0,1,206.73,71.08Z"/><path class="cls-5" d="M76.87,193.67a9,9,0,0,1-3.78-12.1A9,9,0,0,1,61,185.35a9,9,0,0,1,3.78,12.1A9,9,0,0,1,76.87,193.67Z"/><ellipse class="cls-5" cx="84.23" cy="32.21" rx="13.3" ry="3.12" transform="translate(33.63 106.86) rotate(-76.8)"/></g></g></g><g id="Ufo"><rect id="Background-2" data-name="Background" class="cls-1" x="240" width="240" height="240"/><polygon id="Shadow-2" data-name="Shadow" class="cls-2" points="480 156.53 442.96 119.04 434.97 119.04 388.58 72.65 346.09 113.59 282.43 134.56 321.67 173.8 318.88 178.1 380.22 240 480 240 480 156.53"/><g id="Ufo-2" data-name="Ufo"><g id="Ufo-3" data-name="Ufo"><rect class="cls-6" x="318.88" y="137.91" width="3.97" height="36.34"/><path class="cls-6" d="M325.2,174.25a4.34,4.34,0,1,1-4.33-4.33A4.33,4.33,0,0,1,325.2,174.25Z"/><rect class="cls-6" x="395.47" y="137.91" width="3.97" height="36.34"/><path class="cls-6" d="M401.78,174.25a4.33,4.33,0,1,1-4.33-4.33A4.33,4.33,0,0,1,401.78,174.25Z"/><path class="cls-7" d="M360,137.91l-84.48-13.66S278,151.57,360,151.57s84.48-27.32,84.48-27.32Z"/><path class="cls-8" d="M444.48,122.83c0,11.06-37.82,20-84.48,20s-84.48-9-84.48-20,37.82-20,84.48-20S444.48,111.76,444.48,122.83Z"/><path class="cls-8" d="M444.48,122.83c0,11.06-37.82,20-84.48,20s-84.48-9-84.48-20,37.82-20,84.48-20S444.48,111.76,444.48,122.83Z"/><path class="cls-9" d="M397.68,84.85h0a42,42,0,0,0-75.36,0h0a42,42,0,0,0-.62,35.8,322.74,322.74,0,0,0,38.3,2.18,322.74,322.74,0,0,0,38.3-2.18,42,42,0,0,0-.62-35.8Z"/><polygon class="cls-9" points="341.88 122.36 341.88 122.36 341.88 122.36 341.88 122.36"/><path class="cls-2" d="M397.68,84.85h0a42.21,42.21,0,0,0-11.43-14.22A62.72,62.72,0,0,0,365.7,81a10.46,10.46,0,1,1-14,15.33,66.26,66.26,0,0,0-9.83,26h0c5.83.3,11.9.47,18.12.47a322.74,322.74,0,0,0,38.3-2.18,42,42,0,0,0-.62-35.8Z"/><path class="cls-5" d="M303.78,119.16c0,1.77-3.24,3.2-7.22,3.2s-7.22-1.43-7.22-3.2,3.23-3.2,7.22-3.2S303.78,117.4,303.78,119.16Z"/><path class="cls-5" d="M426.6,119.16c0,1.77-3.23,3.2-7.22,3.2s-7.22-1.43-7.22-3.2,3.23-3.2,7.22-3.2S426.6,117.4,426.6,119.16Z"/><ellipse class="cls-5" cx="320.87" cy="129.51" rx="7.22" ry="3.2"/><ellipse class="cls-5" cx="397.45" cy="129.51" rx="7.22" ry="3.2"/><path class="cls-5" d="M367.22,132.71c0,1.77-3.23,3.2-7.22,3.2s-7.22-1.43-7.22-3.2,3.23-3.2,7.22-3.2S367.22,130.94,367.22,132.71Z"/></g><g id="Star-2" data-name="Star"><path class="cls-5" d="M289.83,81.57a7.93,7.93,0,0,1-7.93-7.93A7.93,7.93,0,0,1,274,81.57a7.93,7.93,0,0,1,7.93,7.93A7.93,7.93,0,0,1,289.83,81.57Z"/><path class="cls-5" d="M449.82,82.68a5.94,5.94,0,0,1-5.94-5.94,5.94,5.94,0,0,1-5.94,5.94,5.93,5.93,0,0,1,5.94,5.93A5.93,5.93,0,0,1,449.82,82.68Z"/><circle class="cls-5" cx="292.84" cy="185.19" r="10.94"/><circle class="cls-5" cx="338.13" cy="32.68" r="11.54"/></g></g></g><g id="Telescope"><rect id="Background-3" data-name="Background" class="cls-1" x="480" width="240" height="240"/><polygon id="Shadow-3" data-name="Shadow" class="cls-2" points="720 147.9 684.72 112.43 682.93 115.23 668.72 110.03 647.63 88.95 541.25 86.37 537.46 93.74 589.87 146.15 572.36 194.24 617.91 240 720 240 720 147.9"/><g id="Telescope-2" data-name="Telescope"><g id="Star-3" data-name="Star"><path class="cls-5" d="M542.51,148.67a10.94,10.94,0,0,1-10.94-10.94,10.94,10.94,0,0,1-10.94,10.94,10.94,10.94,0,0,1,10.94,10.94A10.94,10.94,0,0,1,542.51,148.67Z"/><path class="cls-5" d="M680.37,76.32a10.93,10.93,0,0,1-10.94-10.93,10.93,10.93,0,0,1-10.94,10.93,10.94,10.94,0,0,1,10.94,10.94A10.94,10.94,0,0,1,680.37,76.32Z"/><path class="cls-5" d="M537.46,102.61a18.15,18.15,0,0,1-18.15-18.15,18.15,18.15,0,0,1-18.15,18.15,18.16,18.16,0,0,1,18.15,18.16A18.16,18.16,0,0,1,537.46,102.61Z"/><circle class="cls-5" cx="623.45" cy="37.4" r="10.94"/></g><g id="Telescope-3" data-name="Telescope"><rect class="cls-10" x="597.97" y="105.82" width="6.48" height="22.08"/><rect class="cls-10" x="597.97" y="127.55" width="6.48" height="67.04"/><polygon class="cls-10" points="572.36 194.24 590.8 127.9 597.04 129.63 579.17 194.24 572.36 194.24"/><polygon class="cls-10" points="630.3 194.24 611.85 127.9 605.6 129.63 623.48 194.24 630.3 194.24"/><path class="cls-11" d="M607.79,127.91a6.58,6.58,0,1,1-6.58-6.58A6.58,6.58,0,0,1,607.79,127.91Z"/><rect class="cls-11" x="589.91" y="124.67" width="22.6" height="6.48"/><rect class="cls-9" x="555.9" y="53.43" width="40.51" height="58.08" transform="translate(302.1 595.94) rotate(-70.05)"/><rect class="cls-12" x="604.13" y="79.08" width="36.58" height="40.36" transform="translate(316.78 650.48) rotate(-70.05)"/><rect class="cls-13" x="653.14" y="92.84" width="14.4" height="40.36" transform="translate(328.84 695.2) rotate(-70.05)"/><path class="cls-14" d="M550.78,47.89l2.33.84a4.16,4.16,0,0,1,2.48,5.3L542.14,91.09a4.16,4.16,0,0,1-5.3,2.48l-2.33-.85Z"/><path class="cls-14" d="M683.37,110.08a1.94,1.94,0,0,1,1.35,2.35l-6.05,16.67a1.94,1.94,0,0,1-2.55.94l-.43-.15,7.25-20Z"/><rect class="cls-15" x="579.22" y="39.91" width="4.5" height="54.84" transform="translate(319.83 590.96) rotate(-70.06)"/><rect class="cls-15" x="625.08" y="68.18" width="4.5" height="36.38" transform="translate(332.03 646.55) rotate(-70.04)"/><path class="cls-5" d="M542.64,70.31h0l8-22s-3.23.7-10.59,21h0c-7.36,20.31-5.33,22.92-5.33,22.92l8-22h0Z"/></g></g></g><g id="Sun"><rect id="Background-4" data-name="Background" class="cls-1" x="720" width="240" height="240"/><polygon id="Shadow-4" data-name="Shadow" class="cls-2" points="960 128.24 894.61 63.94 889.74 70.98 874.25 55.49 802.23 156.51 780.47 166.62 855 240 960 240 960 128.24"/><g id="Sun-2" data-name="Sun"><g id="Sun-3" data-name="Sun"><path class="cls-16" d="M817.88,71s6.77-14.36,3.46-24.94l15.28,19.44s13.52-11.76,13.52-16.75l1.77,17.93s9.7-9.19,22.34-11.17A157.52,157.52,0,0,0,871.9,74.3l22.71-10.36-6.25,22.42,22.35-3.46L891.89,98.41l27.64,6.76L899,119.73,915.13,134l-17.36,3.84s10.29,22.05,10.29,27.93c0,0-21.9-4.56-24.55-7.2,2.06,6.9,7,25.72,7,25.72l-18.93-11.17-9.71,14.7L846,175.07,835.74,194l-13.67-19.77-19,12.42,3-24.44-25.62,4.45,11.18-18.52L765.47,144l18.82-16.46-23.82-7,25.87-12.72s-13.52-10-15.58-20c6.47,3.23,27.34-3.53,27.34-3.53S791,66.18,795.53,57.62C803.58,63.21,817.88,71,817.88,71Z"/><circle class="cls-17" cx="841.09" cy="120.43" r="49.45" transform="translate(7.55 285.19) rotate(-19.33)"/><path class="cls-2" d="M871.89,81.74a49.46,49.46,0,0,1-75.43,60,49.46,49.46,0,1,0,75.43-60Z"/></g><g id="Star-4" data-name="Star"><circle class="cls-5" cx="771.37" cy="194.88" r="6.68"/><path class="cls-5" d="M921.41,146.87a6.68,6.68,0,0,1-6.73,6.62,6.68,6.68,0,0,1,6.63,6.73,6.68,6.68,0,0,1,6.73-6.63A6.68,6.68,0,0,1,921.41,146.87Z"/><path class="cls-5" d="M873.86,39.36A6.68,6.68,0,0,1,867.14,46a6.69,6.69,0,0,1,6.63,6.72,6.66,6.66,0,0,1,6.72-6.62A6.68,6.68,0,0,1,873.86,39.36Z"/></g></g></g><g id="Alien_Shotgun" data-name="Alien Shotgun"><rect id="Background-5" data-name="Background" class="cls-18" x="960" y="240" width="240" height="240"/><polygon class="cls-19" points="1200 371.24 1166.27 337.91 1160.08 338.31 1145.79 324.02 1141.45 329.52 1134.02 324.02 1130.04 331.71 1122.35 324.02 1118.87 332.24 1110.65 324.02 1104.88 334.86 1088.97 318.95 1088.97 319.56 1012.84 334.8 1007.51 364.25 1020.38 377.12 1000.42 409.06 1071.93 480 1200 480 1200 371.24"/><g id="Alien_Shotgun-2" data-name="Alien Shotgun"><g id="Alien_Shotgun-3" data-name="Alien Shotgun"><rect class="cls-5" x="1089.67" y="337.61" width="70.66" height="8.18"/><path class="cls-5" d="M1147.91,341.56a9.55,9.55,0,1,0,9.54-9.54A9.54,9.54,0,0,0,1147.91,341.56Z"/><rect class="cls-20" x="1138.63" y="320.78" width="7.16" height="41.56" rx="3.23"/><rect class="cls-20" x="1126.86" y="320.78" width="7.16" height="41.56" rx="3.23"/><rect class="cls-20" x="1115.19" y="320.78" width="7.16" height="41.56" rx="3.23"/><rect class="cls-20" x="1103.49" y="320.78" width="7.16" height="41.56" rx="3.23"/><path class="cls-20" d="M993,339.46a13.55,13.55,0,1,0,13.55-13.55A13.55,13.55,0,0,0,993,339.46Z"/><polygon class="cls-21" points="1003.42 402.61 1031.97 409.06 1050.4 355.52 1023.18 346.15 1003.42 402.61"/><path class="cls-22" d="M999.48,406.79a3.24,3.24,0,0,0,3.23,3.23h30.9a3.24,3.24,0,0,0,3.23-3.24V405a3.23,3.23,0,0,0-3.23-3.23h-30.9a3.23,3.23,0,0,0-3.23,3.23Z"/><polygon class="cls-23" points="1051.34 375.48 1055.96 372.32 1055.96 361.93 1051.34 361.93 1051.34 375.48"/><path class="cls-22" d="M1006.55,362a3.23,3.23,0,0,0,3.23,3.23h89.75a2.28,2.28,0,0,0,2.31-3.1l-12.49-42.29a4.6,4.6,0,0,0-4.15-3.1h-75.42a3.24,3.24,0,0,0-3.23,3.23Z"/><polygon class="cls-21" points="1011.86 309.98 1021.1 309.98 1030.33 316.7 1011.86 316.7 1011.86 309.98"/><rect class="cls-5" x="1011.86" y="320.78" width="37.41" height="8.36"/></g><g id="Star-5" data-name="Star"><path class="cls-5" d="M1043.91,283.3a11.41,11.41,0,0,1-11.41-11.41,11.41,11.41,0,0,1-11.4,11.41,11.41,11.41,0,0,1,11.4,11.41A11.41,11.41,0,0,1,1043.91,283.3Z"/><path class="cls-5" d="M1082.08,457.25a6.69,6.69,0,0,1-6.69-6.7,6.7,6.7,0,0,1-6.7,6.7,6.69,6.69,0,0,1,6.7,6.69A6.68,6.68,0,0,1,1082.08,457.25Z"/><path class="cls-5" d="M1129.05,401.74a6.7,6.7,0,0,1-6.7-6.7,6.7,6.7,0,0,1-6.7,6.7,6.7,6.7,0,0,1,6.7,6.7A6.7,6.7,0,0,1,1129.05,401.74Z"/><path class="cls-5" d="M1140.72,294.71a6.7,6.7,0,0,1-6.7-6.7,6.7,6.7,0,0,1-6.7,6.7,6.7,6.7,0,0,1,6.7,6.69A6.7,6.7,0,0,1,1140.72,294.71Z"/></g></g></g><g id="Alien"><rect id="Background-6" data-name="Background" class="cls-18" y="240" width="240" height="240"/><polygon id="Shadow-5" data-name="Shadow" class="cls-19" points="240 367.26 177.82 304.6 155.91 333.58 143.05 340.61 111.47 339.17 77.56 305.26 71 309.29 99.66 376.56 137.09 480 240 480 240 367.26"/><g id="Alien-2" data-name="Alien"><g id="Alien-3" data-name="Alien"><rect class="cls-24" x="79.39" y="303.25" width="7.37" height="51.44" transform="translate(-159.77 92.01) rotate(-31.53)"/><path class="cls-22" d="M77.56,305.26A7.7,7.7,0,1,1,67,302.72,7.7,7.7,0,0,1,77.56,305.26Z"/><rect class="cls-24" x="133.91" y="325.29" width="51.44" height="7.37" transform="translate(-204.25 293.01) rotate(-58.47)"/><path class="cls-22" d="M165.15,305.26a7.7,7.7,0,1,0,10.59-2.54A7.7,7.7,0,0,0,165.15,305.26Z"/><circle class="cls-22" cx="120.83" cy="381.45" r="57.24" transform="translate(-275.52 436.36) rotate(-80.31)"/><rect class="cls-22" x="63.59" y="381.45" width="114.48" height="98.55"/><circle class="cls-25" cx="120.49" cy="370.24" r="28.44" transform="translate(-267.44 403.54) rotate(-76.88)"/><circle class="cls-5" cx="120.49" cy="370.24" r="24.36"/><path class="cls-14" d="M136.79,370.24a16.31,16.31,0,1,1-16.3-16.31A16.3,16.3,0,0,1,136.79,370.24Z"/><path class="cls-25" d="M139.87,422.35A19.39,19.39,0,1,1,120.49,403,19.38,19.38,0,0,1,139.87,422.35Z"/><path class="cls-5" d="M137.09,422.35a16.61,16.61,0,1,1-16.6-16.61A16.6,16.6,0,0,1,137.09,422.35Z"/><path class="cls-14" d="M131.6,422.35a11.11,11.11,0,1,1-11.11-11.11A11.12,11.12,0,0,1,131.6,422.35Z"/><path class="cls-26" d="M120.49,468a12.8,12.8,0,0,0,12.8-12.8h-25.6A12.8,12.8,0,0,0,120.49,468Z"/><path class="cls-27" d="M112.73,465.35a12.75,12.75,0,0,0,15.51,0,8.18,8.18,0,0,0-15.51,0Z"/><path class="cls-25" d="M79.93,378.29a1.24,1.24,0,1,1-1.23-1.23A1.23,1.23,0,0,1,79.93,378.29Z"/><path class="cls-25" d="M89.42,449.15a1.23,1.23,0,1,1-1.23-1.23A1.23,1.23,0,0,1,89.42,449.15Z"/><path class="cls-25" d="M71.67,443a1.23,1.23,0,1,1-1.23-1.23A1.23,1.23,0,0,1,71.67,443Z"/><path class="cls-25" d="M77.89,395.51A5.52,5.52,0,1,1,72.37,390,5.52,5.52,0,0,1,77.89,395.51Z"/><path class="cls-25" d="M158,446.5a5.52,5.52,0,1,1-5.52-5.52A5.53,5.53,0,0,1,158,446.5Z"/><path class="cls-25" d="M92.05,404.91a3.17,3.17,0,1,1-3.17-3.16A3.16,3.16,0,0,1,92.05,404.91Z"/><path class="cls-25" d="M161.17,392.35a3.17,3.17,0,1,1-3.16-3.17A3.16,3.16,0,0,1,161.17,392.35Z"/><path class="cls-25" d="M162.93,376.56a1.77,1.77,0,1,1-1.76-1.76A1.76,1.76,0,0,1,162.93,376.56Z"/><path class="cls-25" d="M169.09,408.07a1.54,1.54,0,1,1-1.53-1.53A1.54,1.54,0,0,1,169.09,408.07Z"/><path class="cls-25" d="M154.84,404.91a3.17,3.17,0,1,1-3.16-3.16A3.16,3.16,0,0,1,154.84,404.91Z"/><path class="cls-25" d="M75.53,420.28a3.16,3.16,0,1,1-3.16-3.16A3.15,3.15,0,0,1,75.53,420.28Z"/><path class="cls-25" d="M95.21,463.88a3.17,3.17,0,1,1-3.16-3.16A3.16,3.16,0,0,1,95.21,463.88Z"/><path class="cls-25" d="M162.8,469a3.17,3.17,0,1,1-3.16-3.16A3.17,3.17,0,0,1,162.8,469Z"/><path class="cls-25" d="M158,420.28a3.17,3.17,0,1,1-3.17-3.16A3.16,3.16,0,0,1,158,420.28Z"/><path class="cls-25" d="M170.72,432.22a3.17,3.17,0,1,1-3.16-3.16A3.17,3.17,0,0,1,170.72,432.22Z"/><path class="cls-25" d="M88.19,433.46A3.17,3.17,0,1,1,85,430.29,3.16,3.16,0,0,1,88.19,433.46Z"/><path class="cls-25" d="M79.64,455.18A3.17,3.17,0,1,1,76.48,452,3.16,3.16,0,0,1,79.64,455.18Z"/><path class="cls-25" d="M99.29,339.79a3.17,3.17,0,1,1-3.17-3.17A3.17,3.17,0,0,1,99.29,339.79Z"/><path class="cls-25" d="M138.32,339.79a3.17,3.17,0,1,1-3.17-3.17A3.17,3.17,0,0,1,138.32,339.79Z"/><path class="cls-25" d="M158,355a3.17,3.17,0,1,1-3.17-3.16A3.17,3.17,0,0,1,158,355Z"/><path class="cls-25" d="M86.24,360.32a3.17,3.17,0,1,1-3.17-3.17A3.17,3.17,0,0,1,86.24,360.32Z"/><path class="cls-5" d="M121.1,367.37a5.86,5.86,0,1,1-5.86-5.87A5.86,5.86,0,0,1,121.1,367.37Z"/><path class="cls-5" d="M121,420.28a3.89,3.89,0,1,1-3.88-3.89A3.88,3.88,0,0,1,121,420.28Z"/></g><circle class="cls-5" cx="43.53" cy="315.36" r="11.41"/><circle class="cls-5" cx="210.53" cy="386.54" r="6.7"/><path class="cls-5" d="M147.79,270.3a5.72,5.72,0,0,1-5.72-5.72,5.72,5.72,0,0,1-5.72,5.72,5.72,5.72,0,0,1,5.72,5.72A5.72,5.72,0,0,1,147.79,270.3Z"/><circle class="cls-5" cx="54.94" cy="385.9" r="6.7"/></g></g><g id="Astronaut"><rect id="Background-7" data-name="Background" class="cls-18" x="240" y="240" width="240" height="240"/><polygon id="Shadow-6" data-name="Shadow" class="cls-19" points="480 382.25 411.49 315.15 409.73 320.01 372.57 282.85 349.3 320.35 346.09 318.01 317.65 289.56 306.61 326.71 344.77 364.88 326.71 386.44 338.97 398.69 352.88 437.38 394.45 480 480 480 480 382.25"/><g id="Astronaut-2" data-name="Astronaut"><g id="Ground"><path class="cls-28" d="M480,471.22c-.78-.69-1.45-1.27-1.95-1.65a203.9,203.9,0,0,0-236.27-.34c-.4.32-1.06.85-1.78,1.47V480H480Z"/><path class="cls-29" d="M320,450.19c.21,1.54-3.93,3.39-9.25,4.13s-9.81.09-10-1.45,3.92-3.39,9.24-4.13S319.77,448.65,320,450.19Z"/><path class="cls-29" d="M415.89,456c-.46,1.49-5,1.39-10.13-.21s-8.91-4.09-8.44-5.57,5-1.39,10.12.2S416.35,454.5,415.89,456Z"/><path class="cls-29" d="M370.66,469.83c.06,1.55-4.26,3-9.62,3.14s-9.77-.94-9.82-2.49,4.26-3,9.63-3.14S370.61,468.28,370.66,469.83Z"/></g><g id="Astronaut-3" data-name="Astronaut"><path class="cls-30" d="M383.19,311.73a1.3,1.3,0,0,1-1.3-1.3v-9.38h-6.35a1.3,1.3,0,1,1,0-2.6h7.65a1.3,1.3,0,0,1,1.3,1.3v10.68A1.3,1.3,0,0,1,383.19,311.73Z"/><rect class="cls-31" x="325.75" y="307.65" width="66.64" height="79.74" rx="3.26"/><path class="cls-32" d="M376.86,294.43a17.79,17.79,0,1,1-17.79-17.79A17.79,17.79,0,0,1,376.86,294.43Z"/><rect class="cls-32" x="341.29" y="294.43" width="35.57" height="20.44"/><path class="cls-33" d="M374.68,294.91c0,7-7,12.74-15.61,12.74s-15.61-5.7-15.61-12.74,7-12.75,15.61-12.75S374.68,287.87,374.68,294.91Z"/><path class="cls-19" d="M364.14,282.85a11,11,0,0,1,2.21,6.54c0,7-7,12.74-15.62,12.74a18.57,18.57,0,0,1-5.06-.69c2.73,3.72,7.71,6.21,13.4,6.21,8.62,0,15.61-5.7,15.61-12.74C374.68,289.32,370.27,284.57,364.14,282.85Z"/><path class="cls-34" d="M354.56,290.61a3.83,3.83,0,1,1-3.83-3.83A3.83,3.83,0,0,1,354.56,290.61Z"/><path class="cls-34" d="M353.21,298.93a2,2,0,1,1-2-2A2,2,0,0,1,353.21,298.93Z"/><rect class="cls-35" x="311.71" y="314.86" width="31.75" height="12.25"/><path class="cls-35" d="M318.5,292.69a6.14,6.14,0,1,1-6.14-6.14A6.14,6.14,0,0,1,318.5,292.69Z"/><path class="cls-35" d="M320.18,294.62a1.68,1.68,0,1,1-1.68-1.68A1.69,1.69,0,0,1,320.18,294.62Z"/><rect class="cls-35" x="382.32" y="314.86" width="25.01" height="12.25"/><path class="cls-35" d="M412,349.28a6.14,6.14,0,1,0-6.14,6.15A6.14,6.14,0,0,0,412,349.28Z"/><path class="cls-35" d="M401.42,347.52a1.69,1.69,0,1,0-1.68,1.69A1.68,1.68,0,0,0,401.42,347.52Z"/><rect class="cls-35" x="332.1" y="371.66" width="19.15" height="62.89"/><rect class="cls-35" x="366.89" y="371.66" width="19.15" height="62.89"/><path class="cls-30" d="M341.68,424a11.21,11.21,0,0,0-11.2,11.2h22.4A11.21,11.21,0,0,0,341.68,424Z"/><rect class="cls-36" x="330.48" y="435.21" width="22.39" height="2.17"/><path class="cls-30" d="M376.46,424a11.2,11.2,0,0,0-11.19,11.2h22.39A11.2,11.2,0,0,0,376.46,424Z"/><rect class="cls-36" x="365.27" y="435.21" width="22.39" height="2.17"/><path class="cls-35" d="M412,331.28V316.16a1.3,1.3,0,0,0-1.3-1.3H401a1.3,1.3,0,0,0-1.3,1.3v15.12h0v18H412v-18Z"/><path class="cls-35" d="M306.24,310.69v15.12a1.3,1.3,0,0,0,1.3,1.3h9.64a1.3,1.3,0,0,0,1.3-1.3V310.69h0v-18H306.22v18Z"/><rect class="cls-35" x="332.1" y="314.86" width="53.94" height="61.23" rx="3.26"/><rect class="cls-30" x="358.07" y="314.86" width="2" height="61.23"/><rect class="cls-37" x="332.1" y="363.46" width="53.94" height="5.47"/><rect class="cls-37" x="353.82" y="361.29" width="10.51" height="9.81"/><rect class="cls-35" x="357.26" y="364.5" width="3.63" height="3.39"/></g><g id="Star-6" data-name="Star"><circle class="cls-5" cx="415.03" cy="291.89" r="7.21"/><circle class="cls-5" cx="306.64" cy="414.45" r="8.96"/><path class="cls-5" d="M325.79,254.76a4.54,4.54,0,0,1-6.25-1.46,4.54,4.54,0,0,1-1.46,6.25,4.54,4.54,0,0,1,6.25,1.46A4.53,4.53,0,0,1,325.79,254.76Z"/><ellipse class="cls-5" cx="288.97" cy="312.82" rx="2.31" ry="9.84" transform="translate(-81.56 522.73) rotate(-76.8)"/><path class="cls-5" d="M424.32,340.14a3.36,3.36,0,0,1-4.62-1.08,3.36,3.36,0,0,1-1.08,4.62,3.36,3.36,0,0,1,4.62,1.08A3.36,3.36,0,0,1,424.32,340.14Z"/><path class="cls-5" d="M274.73,343.37a4.53,4.53,0,0,1-6.25-1.46,4.54,4.54,0,0,1-1.47,6.25,4.54,4.54,0,0,1,6.25,1.46A4.54,4.54,0,0,1,274.73,343.37Z"/><path class="cls-5" d="M418.88,361.32a4.52,4.52,0,0,1-6.24-1.46,4.54,4.54,0,0,1-1.47,6.25,4.54,4.54,0,0,1,6.25,1.46A4.54,4.54,0,0,1,418.88,361.32Z"/></g></g></g><g id="Comet"><rect id="Background-8" data-name="Background" class="cls-18" x="480" y="240" width="240" height="240"/><polygon id="Shadow-7" data-name="Shadow" class="cls-19" points="720 347.89 693.06 319.96 687.43 324.76 655.27 292.61 532.89 397.31 613.9 480 720 480 720 347.89"/><g id="Comet-2" data-name="Comet"><g id="Comet2"><path class="cls-38" d="M655.27,292.61,537.21,373a15.81,15.81,0,0,0-2.57,1.79,16,16,0,0,0,20.77,24.27,15.34,15.34,0,0,0,2.17-2.25Z"/><path class="cls-39" d="M641.74,304.19,538.25,374.71a14.53,14.53,0,0,0-2.24,1.56,14,14,0,1,0,18.15,21.21,13,13,0,0,0,1.89-2Z"/><path class="cls-40" d="M617.69,324.76,539.47,378a11.33,11.33,0,0,0-1.7,1.19,10.6,10.6,0,1,0,13.79,16.11A9.58,9.58,0,0,0,553,393.8Z"/><path class="cls-5" d="M551.58,381.32a8.09,8.09,0,1,1-11.4-.89A8.08,8.08,0,0,1,551.58,381.32Z"/></g><g id="Comet1"><path class="cls-38" d="M693.06,320l-85.73,58.37a12,12,0,0,0-1.86,1.3,11.6,11.6,0,1,0,16.66,16Z"/><path class="cls-39" d="M683.24,328.36l-75.15,51.21a10.33,10.33,0,0,0-1.62,1.14,10.13,10.13,0,0,0,13.17,15.4,9.78,9.78,0,0,0,1.38-1.43Z"/><path class="cls-40" d="M665.77,343.31,609,382a7.78,7.78,0,0,0-1.23.86,7.7,7.7,0,1,0,10,11.7,8.13,8.13,0,0,0,1-1.08Z"/><path class="cls-5" d="M617.77,384.37a5.87,5.87,0,1,1-8.27-.64A5.87,5.87,0,0,1,617.77,384.37Z"/></g><g id="Star-7" data-name="Star"><path class="cls-5" d="M544,292.61a6.68,6.68,0,0,1-6.68-6.68,6.68,6.68,0,0,1-6.67,6.68,6.67,6.67,0,0,1,6.67,6.67A6.67,6.67,0,0,1,544,292.61Z"/><path class="cls-5" d="M586.43,442.3a6.68,6.68,0,0,1-6.67-6.68,6.68,6.68,0,0,1-6.68,6.68,6.68,6.68,0,0,1,6.68,6.67A6.67,6.67,0,0,1,586.43,442.3Z"/><path class="cls-5" d="M683.24,394.06a6.68,6.68,0,0,1-6.68-6.68,6.68,6.68,0,0,1-6.68,6.68,6.68,6.68,0,0,1,6.68,6.68A6.68,6.68,0,0,1,683.24,394.06Z"/></g></g></g><g id="Constellations"><rect id="Background-9" data-name="Background" class="cls-18" x="720" y="240" width="240" height="240"/><polygon class="cls-19" points="960 364.85 891.41 296.45 836.77 351.09 776.61 352.34 748.32 378.9 849.66 480 960 480 960 364.85"/><g id="Constellations-2" data-name="Constellations"><g id="Star-8" data-name="Star"><path class="cls-5" d="M782.8,308.6a4.41,4.41,0,0,1-4.41-4.4,4.4,4.4,0,0,1-4.4,4.4,4.4,4.4,0,0,1,4.4,4.4A4.41,4.41,0,0,1,782.8,308.6Z"/><path class="cls-5" d="M853.15,298.78a4.4,4.4,0,0,1-4.4-4.41,4.4,4.4,0,0,1-4.4,4.41,4.4,4.4,0,0,1,4.4,4.4A4.4,4.4,0,0,1,853.15,298.78Z"/><path class="cls-5" d="M823.24,326.92a4.4,4.4,0,0,1-4.4-4.4,4.4,4.4,0,0,1-4.41,4.4,4.4,4.4,0,0,1,4.41,4.4A4.4,4.4,0,0,1,823.24,326.92Z"/><path class="cls-5" d="M821.14,399.73a4.4,4.4,0,0,1-4.4-4.4,4.41,4.41,0,0,1-4.41,4.4,4.41,4.41,0,0,1,4.41,4.4A4.4,4.4,0,0,1,821.14,399.73Z"/><path class="cls-5" d="M893.19,419.57a4.41,4.41,0,0,0-8.81,0,4.41,4.41,0,0,0,8.81,0Z"/><path class="cls-5" d="M795.21,424a4.4,4.4,0,0,1-4.4-4.4,4.4,4.4,0,0,1-4.4,4.4,4.4,4.4,0,0,1,4.4,4.41A4.4,4.4,0,0,1,795.21,424Z"/><path class="cls-5" d="M923.76,388.26a4.4,4.4,0,1,0-8.8,0,4.4,4.4,0,1,0,8.8,0Z"/></g><g id="Constellations-3" data-name="Constellations"><path class="cls-5" d="M916.94,341l-42.05,37.14-38.78-23.69.47-.77-28.87.43L777,355,755.6,377l-3-3,22.57-23.21,32.49-.94,28.71-.42,52-50.71Zm-42.51,31.89,36.91-32.6-23.71-35L840,351.87Z"/><polygon class="cls-41" points="757.27 369.69 753.72 372.42 749.45 371.04 750.95 375.26 748.32 378.9 752.81 378.77 755.45 382.4 756.72 378.1 760.98 376.71 757.28 374.17 757.27 369.69"/><polygon class="cls-42" points="779.24 347.09 775.68 349.82 771.42 348.44 772.92 352.67 770.29 356.3 774.77 356.18 777.41 359.8 778.68 355.5 782.94 354.11 779.24 351.57 779.24 347.09"/><polygon class="cls-43" points="810.73 345.76 807.18 348.49 802.91 347.11 804.41 351.34 801.78 354.97 806.26 354.85 808.9 358.47 810.17 354.17 814.43 352.78 810.74 350.24 810.73 345.76"/><polygon class="cls-42" points="840.64 345.99 837.09 348.72 832.82 347.34 834.32 351.56 831.69 355.19 836.18 355.07 838.82 358.7 840.09 354.4 844.35 353.01 840.65 350.47 840.64 345.99"/><polygon class="cls-41" points="891.41 296.45 887.85 299.18 883.59 297.8 885.09 302.03 882.46 305.66 886.94 305.54 889.58 309.16 890.85 304.86 895.11 303.47 891.41 300.94 891.41 296.45"/><polygon class="cls-43" points="917.58 335.08 914.03 337.81 909.76 336.43 911.26 340.65 908.63 344.29 913.11 344.17 915.75 347.79 917.02 343.49 921.28 342.1 917.59 339.56 917.58 335.08"/><polygon class="cls-42" points="878.1 369.94 874.55 372.68 870.28 371.3 871.78 375.52 869.15 379.15 873.63 379.03 876.27 382.66 877.54 378.36 881.81 376.96 878.11 374.43 878.1 369.94"/></g></g></g><g id="Earth"><rect id="Background-10" data-name="Background" class="cls-18" x="960" width="240" height="240"/><polygon id="Shadow-8" data-name="Shadow" class="cls-19" points="1200 141.63 1125.93 69.58 1035.45 171.65 1105.8 240 1200 240 1200 141.63"/><g id="Earth-2" data-name="Earth"><g id="Star-9" data-name="Star"><circle class="cls-5" cx="1045.3" cy="40.33" r="7.19"/><path class="cls-5" d="M995.76,116.4a7.17,7.17,0,0,1-7.18-7.18,7.18,7.18,0,0,1-7.19,7.18,7.19,7.19,0,0,1,7.19,7.19A7.18,7.18,0,0,1,995.76,116.4Z"/><circle class="cls-5" cx="1068.11" cy="28.93" r="11.41"/><path class="cls-5" d="M1163.7,79.6a9.69,9.69,0,0,1-9.69-9.69,9.69,9.69,0,0,1-9.69,9.69,9.68,9.68,0,0,1,9.69,9.68A9.68,9.68,0,0,1,1163.7,79.6Z"/></g><g id="Earth-3" data-name="Earth"><circle class="cls-44" cx="1080" cy="120" r="68.21"/><path class="cls-45" d="M1146.35,104.13l-1.11-.42h-5.36l-4-3.19-8.29,6.13-6.89-6.13L1109,102.69l-7.52.9-1.28,14.16,3.06,13.52h12.51l7-1,3,5.48,3.19,6.38-5.62,4.72,4.72,10.72-.76,4.21,4.16,3.07a68.31,68.31,0,0,0,14.94-60.7Z"/><path class="cls-45" d="M1020.8,113.62l4.43,1,4.42,2.89,5.95,1.87,3.07.77,2.89,1.28-1.53,3.06-4.77,7.65,5.28,6.3,7.48,4.76v4.25L1053,155s-.51,4.76,0,6.29,3.41,9.53,3.41,9.53l2.89,3.74,7,.85-4.42-7.14s6.46-9.87,7-10.21-2-4.25-1.53-4.76,4.59-4.94,4.59-4.94l4.43-5.61,1.87-7.32-5.61-8.84s-6.3-4.42-6.3-4.93-4.08-4.94-4.08-4.94l-11.4-.34-6.46-2-2.38,4.25-5.45-2.72.17-4.49h-4.25l-2.38-3.67,3.57-2.72,7.32,3.74,4.59-2.89,4.93-11.57,4.43-5.61h8l1.19-2.73,5.27-2.55,2.22,1.47,2.38-3.51-4.6-6.46-3.57-1.19-1.32,1.23-4.29,4-10-2.38-1.36,4.76-4.42-5.61,5.78-2,6.47,1.7,2.55-2.55,8.16-1.2-6.63-7H1053l-3.06,4.93-3.06-3.91-7.4-.49a68.19,68.19,0,0,0-27,45.24l5.45.94Z"/><path class="cls-45" d="M1121.08,77.73v3.06l-9,2.55.85,6.47-5.11-3.13-4.93,4,3.23,4.76,4.93.68,8.34-6.63,2.38,3.06s-1.53,3.57,0,4.76,8,3.06,8,3.06V94.57l-4.39-3.91,2.9-2.38,5.27,4.42-1.7,3.06,9.86,4.59s1.09-1.25,2.66-3.1a68.36,68.36,0,0,0-26.5-34L1115,74Z"/><path class="cls-19" d="M1113.61,60.63a68.22,68.22,0,0,1-87.22,101.55,68.22,68.22,0,1,0,87.22-101.55Z"/><path class="cls-45" d="M1027.42,149.37l-1-1-2.86.58v2.81l-3,1.7a67.39,67.39,0,0,0,4.47,6.91l2.16-.4,4.26-3.05.24-2.77-4.24-2Z"/></g></g></g><g id="Falling_Star" data-name="Falling Star"><rect id="Background-11" data-name="Background" class="cls-18" y="480" width="240" height="240"/><polygon id="Shadow-9" data-name="Shadow" class="cls-19" points="240 583.8 172.31 517.55 51.85 599.35 42.38 592.62 39.78 608.92 28.05 636.73 112.9 720 240 720 240 583.8"/><g id="Falling_Star-2" data-name="Falling Star"><g id="Clound"><path class="cls-5" d="M174.28,528.67a21.07,21.07,0,0,0-14.43,5.69,21.12,21.12,0,0,0-15.14-2.56,34.53,34.53,0,0,0-62.18,3.57A21,21,0,0,0,56,555.61a20.58,20.58,0,0,0,.13,2.24H193.86a21.16,21.16,0,0,0-19.58-29.18Z"/><path class="cls-5" d="M183.4,579.86a9,9,0,0,0-6.18,2.44,9,9,0,0,0-4.65-1.29,9.26,9.26,0,0,0-1.84.19,14.81,14.81,0,0,0-26.66,1.53,9,9,0,0,0-11.39,8.68c0,.33,0,.65,0,1H191.8a9.07,9.07,0,0,0-8.4-12.51Z"/></g><g id="Falling_Star_2" data-name="Falling Star 2"><path class="cls-46" d="M35.21,612.08s48.24-79.51,137.11-94.53L156,534.78l26.11,2-24.08,11.54L190,556.8s-106,14.83-142.45,68.91Z"/><polygon class="cls-41" points="65.57 609.47 49.55 607.14 42.38 592.62 35.21 607.14 19.19 609.47 30.79 620.77 28.05 636.73 42.38 629.19 56.71 636.73 53.98 620.77 65.57 609.47"/><polygon class="cls-19" points="49.55 607.14 42.38 592.62 42.38 617 49.55 607.14"/><polygon class="cls-19" points="53.98 620.77 65.57 609.47 42.38 617 53.98 620.77"/><polygon class="cls-19" points="28.05 636.73 42.38 629.19 42.38 617 28.05 636.73"/><polygon class="cls-19" points="42.38 617 56.71 636.73 53.98 620.77 42.38 617"/><polygon class="cls-19" points="19.19 609.47 30.79 620.77 42.38 617 19.19 609.47"/></g><g id="Falling_Star_1" data-name="Falling Star 1"><path class="cls-41" d="M87.63,622s57.93-48.24,130-36.33l-17,8.91L220.1,603l-21.49,2.5,22.2,14.9S134,604.48,93.45,635.63Z"/><polygon class="cls-42" points="111.59 627.94 99.92 621.94 98.25 608.92 88.93 618.16 76.03 615.72 81.94 627.44 75.64 638.95 88.61 636.95 97.61 646.51 99.72 633.55 111.59 627.94"/><polygon class="cls-19" points="99.92 621.94 98.25 608.92 91.83 627.61 99.92 621.94"/><polygon class="cls-19" points="99.72 633.55 111.59 627.94 91.83 627.61 99.72 633.55"/><polygon class="cls-19" points="75.64 638.95 88.61 636.95 91.83 627.61 75.64 638.95"/><polygon class="cls-19" points="91.83 627.61 97.61 646.51 99.72 633.55 91.83 627.61"/><polygon class="cls-19" points="76.03 615.72 81.94 627.44 91.83 627.61 76.03 615.72"/></g><path class="cls-5" d="M46.78,548.74a4.4,4.4,0,0,1-4.4-4.4,4.4,4.4,0,0,1-4.4,4.4,4.4,4.4,0,0,1,4.4,4.4A4.4,4.4,0,0,1,46.78,548.74Z"/><path class="cls-5" d="M167,661.1a4.4,4.4,0,0,1-4.4-4.4,4.4,4.4,0,0,1-4.41,4.4,4.4,4.4,0,0,1,4.41,4.4A4.4,4.4,0,0,1,167,661.1Z"/><path class="cls-5" d="M70,661.1a4.4,4.4,0,0,1-4.4-4.4,4.4,4.4,0,0,1-4.4,4.4,4.4,4.4,0,0,1,4.4,4.4A4.4,4.4,0,0,1,70,661.1Z"/></g></g><g id="Mars"><rect id="Background-12" data-name="Background" class="cls-18" y="720" width="240" height="240"/><polygon id="Shadow-10" data-name="Shadow" class="cls-19" points="240 861.72 164.7 785.99 69.47 890 139.06 960 240 960 240 861.72"/><g id="Mars-2" data-name="Mars"><path class="cls-27" d="M187.84,857.62a70.09,70.09,0,1,1-50.22-85.46A70.08,70.08,0,0,1,187.84,857.62Z"/><path class="cls-47" d="M51.28,853.86c19.92.67,74-1.23,135.68-34.6A70.5,70.5,0,0,0,176,797.88c-20,13.78-65.82,39.34-125.84,35.75A69.29,69.29,0,0,0,51.28,853.86Z"/><path class="cls-47" d="M187.84,857.62A69.83,69.83,0,0,0,190,836.21c-15.82,11.86-64.33,43.3-130.15,39.79a70.38,70.38,0,0,0,11,14c20.79.14,64.55-3,115.28-26.79Q187.1,860.46,187.84,857.62Z"/><path class="cls-47" d="M115.07,909.93A70.07,70.07,0,0,0,160.8,897,204.31,204.31,0,0,1,115.07,909.93Z"/><path class="cls-47" d="M163.14,784.73a70.15,70.15,0,0,0-107.2,26.81C78.92,810.75,118.32,805.79,163.14,784.73Z"/><path class="cls-48" d="M162.49,820.88A13.31,13.31,0,1,1,153,804.66,13.31,13.31,0,0,1,162.49,820.88Z"/><g class="cls-49"><path d="M155.27,808.82a13.32,13.32,0,0,1,6.94,4.43A13.31,13.31,0,1,0,139.33,826a13.31,13.31,0,0,1,15.94-17.17Z"/></g><path class="cls-48" d="M118.69,850.71a9.08,9.08,0,1,1-6.5-11.07A9.08,9.08,0,0,1,118.69,850.71Z"/><g class="cls-49"><path d="M113.77,842.49a8.93,8.93,0,0,1,4.72,3,9.07,9.07,0,1,0-15.59,8.68,9.06,9.06,0,0,1,10.87-11.7Z"/></g><path class="cls-48" d="M149.85,789.08a5.9,5.9,0,1,1-4.23-7.19A5.92,5.92,0,0,1,149.85,789.08Z"/><g class="cls-49"><path d="M146.65,783.73a5.91,5.91,0,0,1,3.07,2,5.9,5.9,0,1,0-10.14,5.64,5.91,5.91,0,0,1,7.07-7.61Z"/></g><path class="cls-48" d="M85.32,842A9.07,9.07,0,1,1,78.82,831,9.08,9.08,0,0,1,85.32,842Z"/><g class="cls-49"><path d="M80.4,833.82a9,9,0,0,1,4.73,3,9.07,9.07,0,1,0-15.6,8.68,9.07,9.07,0,0,1,10.87-11.7Z"/></g><path class="cls-48" d="M116.87,893.81a9.08,9.08,0,1,1-6.5-11.07A9.07,9.07,0,0,1,116.87,893.81Z"/><g class="cls-49"><path d="M112,885.58a9.06,9.06,0,0,1,4.73,3,9.08,9.08,0,1,0-15.6,8.69A9.08,9.08,0,0,1,112,885.58Z"/></g><path class="cls-48" d="M150.45,888.12a9.08,9.08,0,1,1-6.5-11.07A9.07,9.07,0,0,1,150.45,888.12Z"/><g class="cls-49"><path d="M145.53,879.89a9.06,9.06,0,0,1,4.73,3,9.08,9.08,0,1,0-15.6,8.69,8.91,8.91,0,0,1-.19-5.2A9.07,9.07,0,0,1,145.53,879.89Z"/></g><path class="cls-48" d="M173.23,854.83a5.2,5.2,0,1,1-3.72-6.33A5.2,5.2,0,0,1,173.23,854.83Z"/><g class="cls-49"><path d="M170.41,850.12a5.21,5.21,0,0,1,2.71,1.73,5.19,5.19,0,1,0-8.93,5,5.11,5.11,0,0,1-.11-3A5.19,5.19,0,0,1,170.41,850.12Z"/></g><path class="cls-48" d="M108.37,794.62a5.19,5.19,0,1,1-3.72-6.33A5.2,5.2,0,0,1,108.37,794.62Z"/><g class="cls-49"><path d="M105.55,789.92a5.17,5.17,0,0,1,2.71,1.73,5.19,5.19,0,1,0-8.93,5,5.28,5.28,0,0,1-.11-3A5.19,5.19,0,0,1,105.55,789.92Z"/></g><path class="cls-48" d="M74.84,801.19a2.73,2.73,0,1,1-2-3.32A2.73,2.73,0,0,1,74.84,801.19Z"/><g class="cls-49"><path d="M73.36,798.72a2.7,2.7,0,0,1,1.42.91,2.68,2.68,0,0,0-1.89-1.76,2.73,2.73,0,0,0-2.8,4.37,2.78,2.78,0,0,1,0-1.57A2.71,2.71,0,0,1,73.36,798.72Z"/></g><path class="cls-48" d="M186.1,838.48a2.73,2.73,0,1,1-1.95-3.32A2.72,2.72,0,0,1,186.1,838.48Z"/><g class="cls-49"><path d="M184.62,836a2.7,2.7,0,0,1,1.42.91,2.7,2.7,0,0,0-1.89-1.76,2.73,2.73,0,0,0-3.33,2,2.71,2.71,0,0,0,.54,2.42,2.67,2.67,0,0,1-.06-1.56A2.73,2.73,0,0,1,184.62,836Z"/></g><path class="cls-48" d="M70.65,862.47a2.73,2.73,0,1,1-2-3.33A2.73,2.73,0,0,1,70.65,862.47Z"/><g class="cls-49"><path d="M69.17,860a2.74,2.74,0,0,1,1.42.91,2.73,2.73,0,1,0-4.69,2.61,2.7,2.7,0,0,1-.06-1.57A2.73,2.73,0,0,1,69.17,860Z"/></g><path class="cls-48" d="M90.46,887.22a2.73,2.73,0,1,1-2-3.33A2.73,2.73,0,0,1,90.46,887.22Z"/><g class="cls-49"><path d="M89,884.74a2.8,2.8,0,0,1,1.42.91,2.73,2.73,0,1,0-4.69,2.61,2.66,2.66,0,0,1-.06-1.56A2.74,2.74,0,0,1,89,884.74Z"/></g><path class="cls-19" d="M164.7,786A70.11,70.11,0,0,1,54.24,864.27,70.1,70.1,0,1,0,164.7,786Z"/></g><g id="Star-10" data-name="Star"><circle class="cls-5" cx="52.67" cy="896.88" r="6.68"/><path class="cls-5" d="M202.7,848.86a6.66,6.66,0,0,1-6.72,6.63,6.68,6.68,0,0,1,6.63,6.73,6.68,6.68,0,0,1,6.72-6.63A6.69,6.69,0,0,1,202.7,848.86Z"/><circle class="cls-5" cx="74.78" cy="761.39" r="14.04"/></g></g><g id="Meteor"><rect id="Background-13" data-name="Background" class="cls-18" x="240" y="960" width="240" height="240"/><polygon id="Shadow-11" data-name="Shadow" class="cls-19" points="480 1061.9 412.77 993.98 385.78 1021.04 376.19 1011.46 362.13 1031.57 347.25 1041.74 334.84 1041.74 294.3 1115.77 377.74 1200 480 1200 480 1061.9"/><g id="Meteor-2" data-name="Meteor"><g id="Star-11" data-name="Star"><path class="cls-5" d="M333.85,997.23a10.94,10.94,0,0,1-10.94-10.94A10.94,10.94,0,0,1,312,997.23a10.94,10.94,0,0,1,10.94,10.94A10.94,10.94,0,0,1,333.85,997.23Z"/><circle class="cls-5" cx="273.13" cy="1059.09" r="10.94"/><path class="cls-5" d="M352.2,1134.89A10.93,10.93,0,0,1,341.26,1124a10.93,10.93,0,0,1-10.94,10.93,10.94,10.94,0,0,1,10.94,10.94A10.94,10.94,0,0,1,352.2,1134.89Z"/><circle class="cls-5" cx="422.62" cy="1022.88" r="6.88"/><path class="cls-5" d="M443.27,1122.66a6.89,6.89,0,0,1-6.88-6.89,6.9,6.9,0,0,1-6.89,6.89,6.89,6.89,0,0,1,6.89,6.88A6.88,6.88,0,0,1,443.27,1122.66Z"/></g><g id="Meteor_2" data-name="Meteor 2"><path class="cls-50" d="M417.66,1100.12s-4.51,5.5-8.24,7.85c0,0,15.25-26.46,29.77-37.25,0,0-12.91,2.61-21.88,11.21,4.08-4,32.43-31.86,34.34-37.19-5.34,1.92-33.36,30.37-37.25,34.34,8.62-9,11.24-21.91,11.24-21.91-10.79,14.52-37.25,29.77-37.25,29.77,2.35-3.73,7.85-8.24,7.85-8.24-9.62,3.92-30.1,28.94-30.1,28.94l11.3,11.28,11.28,11.3S413.74,1109.74,417.66,1100.12Z"/><path class="cls-51" d="M397.25,1109.43a22.52,22.52,0,0,1-4,3.79s7.34-12.75,14.34-18a24.09,24.09,0,0,0-10.54,5.4c2-1.92,15.62-15.35,16.55-17.92-2.58.93-16.08,14.63-17.95,16.54a24.13,24.13,0,0,0,5.42-10.55c-5.21,7-18,14.34-18,14.34a22.23,22.23,0,0,1,3.78-4c-4.64,1.89-14.5,13.94-14.5,13.94l5.44,5.44,5.44,5.44S395.36,1114.07,397.25,1109.43Z"/><path class="cls-28" d="M393.21,1120a3,3,0,0,1-1.73-5.69,1.61,1.61,0,0,1-.08-.54,1.83,1.83,0,0,1,.61-1.37,16,16,0,0,0-30.47,8,1.38,1.38,0,0,1,.86,1.28,1.42,1.42,0,0,1-.06.42.88.88,0,0,1,.37.73.89.89,0,0,1-.51.81,16,16,0,0,0,31.18-3.74Z"/><path class="cls-29" d="M369.11,1113.73a2.82,2.82,0,1,1,2.82,2.81A2.82,2.82,0,0,1,369.11,1113.73Z"/><path class="cls-52" d="M370.74,1116.28a2.82,2.82,0,0,1,1.91-4.89,2.91,2.91,0,0,1,1.18.26,2.82,2.82,0,1,0-3.09,4.63Z"/><path class="cls-29" d="M370.42,1127.45a1.89,1.89,0,1,1,1.88,1.88A1.88,1.88,0,0,1,370.42,1127.45Z"/><path class="cls-52" d="M371.51,1129.16a1.89,1.89,0,0,1,1.28-3.28,1.9,1.9,0,0,1,.79.17,1.94,1.94,0,0,0-1.28-.49,1.89,1.89,0,0,0-.79,3.6Z"/><path class="cls-29" d="M380,1124.11a1.45,1.45,0,1,1,1.45,1.45A1.45,1.45,0,0,1,380,1124.11Z"/><path class="cls-52" d="M380.82,1125.42a1.42,1.42,0,0,1-.47-1.06,1.45,1.45,0,0,1,1.45-1.46,1.4,1.4,0,0,1,.61.14,1.43,1.43,0,0,0-1-.38,1.45,1.45,0,0,0-.61,2.76Z"/></g><g id="Meteor_1" data-name="Meteor 1"><path class="cls-50" d="M365,1071.87s-6.35,7.73-11.59,11c0,0,21.44-37.22,41.87-52.4,0,0-18.16,3.68-30.77,15.77,5.73-5.61,45.6-44.81,48.29-52.3-7.51,2.7-46.92,42.71-52.39,48.29,12.13-12.62,15.81-30.81,15.81-30.81-15.18,20.42-52.39,41.87-52.39,41.87,3.31-5.24,11-11.59,11-11.59-13.53,5.52-42.33,40.7-42.33,40.7l15.89,15.86,15.87,15.9S359.45,1085.39,365,1071.87Z"/><path class="cls-51" d="M336.26,1085a31.47,31.47,0,0,1-5.58,5.32S341,1072.35,350.85,1065c0,0-8.75,1.77-14.82,7.59,2.76-2.7,22-21.59,23.26-25.19-3.62,1.29-22.6,20.57-25.24,23.26,5.85-6.08,7.62-14.85,7.62-14.85-7.31,9.85-25.24,20.18-25.24,20.18a30.92,30.92,0,0,1,5.32-5.59c-6.52,2.66-20.4,19.61-20.4,19.61l7.66,7.65,7.64,7.65S333.6,1091.48,336.26,1085Z"/><path class="cls-28" d="M330.58,1099.8a4.18,4.18,0,0,1-2.44-8,2.74,2.74,0,0,1-.11-.76,2.61,2.61,0,0,1,.86-1.94A22.46,22.46,0,0,0,286,1100.44a2,2,0,0,1,1.22,1.8,2,2,0,0,1-.1.59,1.24,1.24,0,0,1-.2,2.16,22.46,22.46,0,0,0,43.86-5.25Z"/><path class="cls-29" d="M296.69,1091a4,4,0,1,1,4,4A4,4,0,0,1,296.69,1091Z"/><path class="cls-52" d="M299,1094.59a4,4,0,0,1,4.33-6.51,3.91,3.91,0,0,0-2.67-1,4,4,0,0,0-1.66,7.55Z"/><circle class="cls-29" cx="301.18" cy="1110.29" r="2.65"/><path class="cls-52" d="M300.06,1112.7a2.69,2.69,0,0,1-.86-2,2.66,2.66,0,0,1,2.66-2.65,2.73,2.73,0,0,1,1.11.24,2.66,2.66,0,1,0-2.91,4.37Z"/><path class="cls-29" d="M312,1105.6a2,2,0,1,1,2,2A2.05,2.05,0,0,1,312,1105.6Z"/><path class="cls-52" d="M313.16,1107.45a2,2,0,0,1,2.23-3.36,2,2,0,1,0-2.23,3.36Z"/></g></g></g><g id="Moon_Crestcent" data-name="Moon Crestcent"><rect id="Background-14" data-name="Background" class="cls-18" x="240" y="480" width="240" height="240"/><polygon id="Shadow-12" data-name="Shadow" class="cls-19" points="480 614.19 408.31 542.44 417.56 571.4 392.65 608.09 350.78 625.9 330.64 622.32 311.16 643.01 282.34 654.41 347.87 720 480 720 480 614.19"/><g id="Moon_Crestcent-2" data-name="Moon Crestcent"><g id="Star-12" data-name="Star"><path class="cls-5" d="M440.81,557.69a7.21,7.21,0,0,1-9.68-3.21,7.21,7.21,0,0,1-3.2,9.68,7.19,7.19,0,0,1,9.67,3.21A7.22,7.22,0,0,1,440.81,557.69Z"/><path class="cls-5" d="M333.92,687.64a9,9,0,0,1-3.78-12.1,9,9,0,0,1-12.09,3.78,9,9,0,0,1,3.78,12.1A9,9,0,0,1,333.92,687.64Z"/><path class="cls-5" d="M345.13,523.79a4.54,4.54,0,0,1-6.25-1.46,4.53,4.53,0,0,1-1.46,6.25,4.54,4.54,0,0,1,6.25,1.46A4.54,4.54,0,0,1,345.13,523.79Z"/><ellipse class="cls-5" cx="308.31" cy="581.85" rx="9.84" ry="2.31" transform="translate(-328.56 749.16) rotate(-76.8)"/><path class="cls-5" d="M443.66,609.17a3.36,3.36,0,0,1-4.62-1.08,3.35,3.35,0,1,0,3.54,5.7A3.36,3.36,0,0,1,443.66,609.17Z"/><path class="cls-5" d="M294.07,612.41a4.54,4.54,0,0,1-6.25-1.47,4.54,4.54,0,0,1-1.47,6.25,4.54,4.54,0,0,1,6.25,1.46A4.53,4.53,0,0,1,294.07,612.41Z"/><path class="cls-5" d="M438.23,630.36a4.54,4.54,0,0,1-6.25-1.47,4.54,4.54,0,0,1-1.47,6.25,4.54,4.54,0,0,1,6.25,1.46A4.53,4.53,0,0,1,438.23,630.36Z"/></g><g id="Moon_Crestcent-3" data-name="Moon Crestcent"><path class="cls-53" d="M408.31,542.44A63.65,63.65,0,0,1,302,595.83a63.63,63.63,0,1,0,106.29-53.39Z"/><path class="cls-54" d="M369.81,630.54a8.24,8.24,0,1,1-4.26-10.85A8.24,8.24,0,0,1,369.81,630.54Z"/><g class="cls-49"><path d="M366.56,622.46a8.2,8.2,0,0,1,3.81,3.39,8.23,8.23,0,1,0-15.22,5.56,8.24,8.24,0,0,1,11.41-8.95Z"/></g><path class="cls-54" d="M420.25,595.21a4.71,4.71,0,1,1-2.43-6.21A4.71,4.71,0,0,1,420.25,595.21Z"/><g class="cls-49"><path d="M418.4,590.59a4.75,4.75,0,0,1,2.18,1.94,4.71,4.71,0,1,0-8.71,3.18,4.71,4.71,0,0,1,6.53-5.12Z"/></g><path class="cls-54" d="M410.49,630c-1.24,1.38-2.85,2-3.6,1.29s-.36-2.34.88-3.73,2.84-2,3.6-1.29S411.73,628.61,410.49,630Z"/><g class="cls-49"><path d="M411.12,627.22a1.4,1.4,0,0,1,.38,1.2,1.93,1.93,0,0,0-.13-2.15c-.76-.67-2.37-.09-3.6,1.29a4.62,4.62,0,0,0-1.25,2.53,5.58,5.58,0,0,1,1-1.57C408.76,627.13,410.37,626.55,411.12,627.22Z"/></g><path class="cls-54" d="M419.83,567.78a2.48,2.48,0,1,1-1.28-3.26A2.48,2.48,0,0,1,419.83,567.78Z"/><g class="cls-49"><path d="M418.86,565.35a2.52,2.52,0,0,1,1.14,1,2.48,2.48,0,0,0-4.71-.57,2.45,2.45,0,0,0,.14,2.24,2.48,2.48,0,0,1,3.43-2.69Z"/></g><path class="cls-54" d="M332.13,627.51a2.48,2.48,0,1,1-1.28-3.26A2.49,2.49,0,0,1,332.13,627.51Z"/><g class="cls-49"><path d="M331.15,625.08a2.49,2.49,0,0,1,1.15,1,2.48,2.48,0,1,0-4.58,1.67,2.48,2.48,0,0,1,3.43-2.69Z"/></g><path class="cls-54" d="M380.1,648.1a2.64,2.64,0,1,1,1.85-3.57A2.87,2.87,0,0,1,380.1,648.1Z"/><g class="cls-49"><path d="M381.46,645.42a2.35,2.35,0,0,1,0,1.65,2.53,2.53,0,0,0,.45-2.54,2.87,2.87,0,0,0-3.83-1.26,3.28,3.28,0,0,0-1.89,1.94,3.53,3.53,0,0,1,1.4-1A2.87,2.87,0,0,1,381.46,645.42Z"/></g><path class="cls-19" d="M385,649.88a63.63,63.63,0,0,0,23.33-107.44S432.74,600,385,649.88Z"/></g><path id="Cloud" class="cls-5" d="M370,632.75A15.65,15.65,0,0,0,359.32,637a15.49,15.49,0,0,0-8-2.23,15.81,15.81,0,0,0-3.18.32A25.62,25.62,0,0,0,302,637.73a15.27,15.27,0,0,0-4.14-.56,15.57,15.57,0,0,0-15.57,15.57,15.3,15.3,0,0,0,.09,1.67H384.56A15.71,15.71,0,0,0,370,632.75Z"/></g></g><g id="Moon"><rect id="Background-15" data-name="Background" class="cls-18" x="480" y="480" width="240" height="240"/><polygon id="Shadow-13" data-name="Shadow" class="cls-19" points="720 630.06 647.43 558.45 554.04 643.18 631.85 720 720 720 720 630.06"/><g id="Moon-2" data-name="Moon"><g id="Star-13" data-name="Star"><circle class="cls-5" cx="663.06" cy="674" r="10.94"/><circle class="cls-5" cx="562.3" cy="672.76" r="13.59"/><path class="cls-5" d="M537.59,554.54a10.94,10.94,0,0,1-10.94-10.94,10.94,10.94,0,0,1-10.94,10.94,10.94,10.94,0,0,1,10.94,10.94A10.94,10.94,0,0,1,537.59,554.54Z"/><path class="cls-5" d="M689.83,621a6.88,6.88,0,0,1-9.48-2.22,6.89,6.89,0,0,1-2.22,9.48,6.89,6.89,0,0,1,9.48,2.22A6.88,6.88,0,0,1,689.83,621Z"/><ellipse class="cls-5" cx="604.53" cy="508.3" rx="26.46" ry="4.79" transform="translate(-3.28 1012.67) rotate(-79.74)"/><path class="cls-5" d="M533.53,630.5a6.89,6.89,0,0,1-6.88-6.89,6.89,6.89,0,0,1-6.89,6.89,6.88,6.88,0,0,1,6.89,6.88A6.88,6.88,0,0,1,533.53,630.5Z"/></g><g id="Moon-3" data-name="Moon"><circle class="cls-53" cx="600" cy="600" r="63.06" transform="translate(-108.39 1067.11) rotate(-78.4)"/><path class="cls-19" d="M619.47,540a63.08,63.08,0,0,1-68.68,99.43A63.07,63.07,0,1,0,619.47,540Z"/><circle class="cls-54" cx="604.53" cy="591.42" r="11.97" transform="translate(-180.31 276.36) rotate(-22.5)"/><g class="cls-49"><path d="M607.5,582.55a11.87,11.87,0,0,1,7,2.29,12,12,0,1,0-17,16.26,12,12,0,0,1,10-18.55Z"/></g><circle class="cls-54" cx="633.25" cy="571.28" r="8.16"/><g class="cls-49"><path d="M635.27,565.24a8.15,8.15,0,0,1,4.8,1.56,8.16,8.16,0,1,0-11.62,11.09,8.17,8.17,0,0,1,6.82-12.65Z"/></g><path class="cls-54" d="M614.48,548.91a5.31,5.31,0,1,1-5.31-5.31A5.31,5.31,0,0,1,614.48,548.91Z"/><g class="cls-49"><path d="M610.48,545a5.25,5.25,0,0,1,3.12,1,5.3,5.3,0,1,0-7.55,7.2,5.3,5.3,0,0,1,4.43-8.22Z"/></g><circle class="cls-54" cx="562.1" cy="609.62" r="8.16" transform="translate(-60.13 1157.74) rotate(-88.7)"/><g class="cls-49"><path d="M564.12,603.58a8.1,8.1,0,0,1,4.8,1.56,8.16,8.16,0,1,0-11.62,11.09,8.17,8.17,0,0,1,6.82-12.65Z"/></g><path class="cls-54" d="M598.82,629.59a8.16,8.16,0,1,1-8.16-8.17A8.16,8.16,0,0,1,598.82,629.59Z"/><g class="cls-49"><path d="M592.68,623.54a8.15,8.15,0,0,1,4.8,1.56,8.16,8.16,0,1,0-11.62,11.09,8.17,8.17,0,0,1,6.82-12.65Z"/></g><path class="cls-54" d="M637.4,635a8.17,8.17,0,1,1-8.17-8.17A8.17,8.17,0,0,1,637.4,635Z"/><g class="cls-49"><path d="M631.25,629a8.13,8.13,0,0,1,4.8,1.56,8.16,8.16,0,1,0-11.62,11.09A8.17,8.17,0,0,1,631.25,629Z"/></g><path class="cls-54" d="M649.7,600.88a4.67,4.67,0,1,1-4.67-4.67A4.67,4.67,0,0,1,649.7,600.88Z"/><g class="cls-49"><path d="M646.19,597.42a4.65,4.65,0,0,1,2.74.89,4.67,4.67,0,1,0-6.65,6.35,4.67,4.67,0,0,1,3.91-7.24Z"/></g><path class="cls-54" d="M579.61,563.12a4.67,4.67,0,1,1-4.67-4.67A4.67,4.67,0,0,1,579.61,563.12Z"/><g class="cls-49"><path d="M576.09,559.66a4.66,4.66,0,0,1,2.75.89,4.67,4.67,0,1,0-6.65,6.35,4.67,4.67,0,0,1,3.9-7.24Z"/></g><path class="cls-54" d="M551.9,576.42a2.46,2.46,0,1,1-2.46-2.45A2.46,2.46,0,0,1,551.9,576.42Z"/><g class="cls-49"><path d="M550.05,574.6a2.46,2.46,0,0,1,1.44.47A2.45,2.45,0,1,0,548,578.4a2.46,2.46,0,0,1,2-3.8Z"/></g><circle class="cls-54" cx="657.22" cy="615.33" r="2.45"/><g class="cls-49"><path d="M657.83,613.52a2.41,2.41,0,0,1,1.44.47,2.45,2.45,0,1,0-3.49,3.33,2.42,2.42,0,0,1-.41-1.35A2.45,2.45,0,0,1,657.83,613.52Z"/></g><path class="cls-54" d="M657.22,583.73a2.46,2.46,0,1,1-2.45-2.45A2.46,2.46,0,0,1,657.22,583.73Z"/><g class="cls-49"><path d="M655.37,581.92a2.44,2.44,0,0,1,1.45.47,2.46,2.46,0,1,0-3.5,3.33,2.49,2.49,0,0,1-.4-1.35A2.45,2.45,0,0,1,655.37,581.92Z"/></g><path class="cls-54" d="M562.1,630.73a2.46,2.46,0,1,1-2.45-2.45A2.45,2.45,0,0,1,562.1,630.73Z"/><g class="cls-49"><path d="M560.26,628.91a2.48,2.48,0,0,1,1.44.47,2.46,2.46,0,0,0-4.51,1.35,2.42,2.42,0,0,0,1,2,2.36,2.36,0,0,1-.41-1.34A2.46,2.46,0,0,1,560.26,628.91Z"/></g><path class="cls-54" d="M585,647.8a2.46,2.46,0,1,1-2.45-2.45A2.45,2.45,0,0,1,585,647.8Z"/><g class="cls-49"><path d="M583.1,646a2.51,2.51,0,0,1,1.45.47A2.46,2.46,0,0,0,580,647.8a2.43,2.43,0,0,0,1,2,2.46,2.46,0,0,1,2.05-3.8Z"/></g></g></g></g><g id="Rocket"><rect id="Background-16" data-name="Background" class="cls-18" x="720" y="480" width="240" height="240"/><polygon id="Shadow-14" data-name="Shadow" class="cls-19" points="960 624.16 853.66 518.45 828.9 590.71 811.59 599.51 798.92 586.84 796.47 591.73 796.47 607.7 790.09 616.15 791.24 617.3 790.98 618.23 833.54 660.79 825.45 687.52 858.32 720 960 720 960 624.16"/><g id="Rocket-2" data-name="Rocket"><g id="Star-14" data-name="Star"><path class="cls-5" d="M778,641.6a6.67,6.67,0,0,1-6.67-6.67,6.67,6.67,0,0,1-6.68,6.67,6.68,6.68,0,0,1,6.68,6.68A6.68,6.68,0,0,1,778,641.6Z"/><circle class="cls-5" cx="886.9" cy="663.6" r="6.68"/><path class="cls-5" d="M922.6,593.51a6.68,6.68,0,0,1-6.68-6.67,6.67,6.67,0,0,1-6.67,6.67,6.67,6.67,0,0,1,6.67,6.68A6.68,6.68,0,0,1,922.6,593.51Z"/></g><g id="Rocket-3" data-name="Rocket"><polygon class="cls-5" points="840.32 623.29 829.26 623.29 826.97 655.6 840.32 655.6 840.32 623.29"/><polygon class="cls-5" points="840.32 623.29 851.37 623.29 853.66 655.6 840.32 655.6 840.32 623.29"/><path class="cls-5" d="M842.54,639.8a6.23,6.23,0,1,1-6.22-6.23A6.23,6.23,0,0,1,842.54,639.8Z"/><path class="cls-5" d="M849.58,643.16a6.22,6.22,0,1,1-6.22-6.22A6.21,6.21,0,0,1,849.58,643.16Z"/><path class="cls-5" d="M842.54,649.38a6.23,6.23,0,1,1-6.22-6.22A6.22,6.22,0,0,1,842.54,649.38Z"/><path class="cls-5" d="M841,657.38a6.22,6.22,0,1,1-6.22-6.22A6.21,6.21,0,0,1,841,657.38Z"/><path class="cls-5" d="M852.06,657.38a6.22,6.22,0,1,1-6.22-6.22A6.22,6.22,0,0,1,852.06,657.38Z"/><path class="cls-5" d="M850.28,651.16a6.22,6.22,0,1,1-6.22-6.22A6.22,6.22,0,0,1,850.28,651.16Z"/><path class="cls-5" d="M850.28,662.58a6.22,6.22,0,1,1-6.22-6.22A6.22,6.22,0,0,1,850.28,662.58Z"/><path class="cls-5" d="M856.5,657.38a6.22,6.22,0,1,1-6.22-6.22A6.21,6.21,0,0,1,856.5,657.38Z"/><path class="cls-5" d="M833.9,655.6a6.22,6.22,0,1,1-6.22-6.22A6.21,6.21,0,0,1,833.9,655.6Z"/><path class="cls-5" d="M833.19,665.63a6.22,6.22,0,1,1-6.22-6.22A6.21,6.21,0,0,1,833.19,665.63Z"/><path class="cls-5" d="M828.9,674.13a5.06,5.06,0,1,1-5.06-5.06A5.06,5.06,0,0,1,828.9,674.13Z"/><path class="cls-5" d="M842.54,666.52a6.23,6.23,0,1,1-6.22-6.22A6.22,6.22,0,0,1,842.54,666.52Z"/><circle class="cls-5" cx="833.19" cy="679.76" r="10.96"/><path class="cls-5" d="M863.44,672.74a12.27,12.27,0,1,1-12.27-12.26A12.27,12.27,0,0,1,863.44,672.74Z"/><path class="cls-50" d="M845.84,628.81c0,3.05-2.47,12.79-5.52,12.79s-5.53-9.74-5.53-12.79a5.53,5.53,0,0,1,11.05,0Z"/><path class="cls-51" d="M844.2,627.94c0,2.14-1.74,9-3.88,9s-3.89-6.86-3.89-9a3.89,3.89,0,1,1,7.77,0Z"/><polygon class="cls-55" points="881.24 614.59 855.03 614.59 855.03 578.54 886.9 595.93 881.24 614.59"/><polygon class="cls-55" points="798.76 614.59 824.97 614.59 824.97 578.54 793.1 595.93 798.76 614.59"/><rect class="cls-5" x="820.75" y="536.06" width="39.13" height="82.55"/><path class="cls-27" d="M840.32,509.28s-19.57,6.08-19.57,26.78h39.13C859.88,515.36,840.32,509.28,840.32,509.28Z"/><rect class="cls-14" x="823.84" y="618.61" width="32.95" height="7.28"/><rect class="cls-56" x="790.09" y="592.51" width="11.2" height="23.64"/><path class="cls-27" d="M795.69,584.84s-5.6,1.74-5.6,7.67h11.2C801.29,586.58,795.69,584.84,795.69,584.84Z"/><rect class="cls-14" x="790.97" y="616.15" width="9.43" height="2.08"/><rect class="cls-56" x="878.71" y="592.51" width="11.2" height="23.64"/><path class="cls-27" d="M884.31,584.84s-5.6,1.74-5.6,7.67h11.2C889.91,586.58,884.31,584.84,884.31,584.84Z"/><rect class="cls-14" x="879.59" y="616.15" width="9.43" height="2.08"/><path class="cls-27" d="M851.93,555a11.62,11.62,0,1,1-11.61-11.62A11.61,11.61,0,0,1,851.93,555Z"/><circle class="cls-57" cx="840.32" cy="554.99" r="9.55"/><path class="cls-5" d="M839.78,550.53a2.27,2.27,0,1,1-2.27-2.27A2.27,2.27,0,0,1,839.78,550.53Z"/><path class="cls-19" d="M856.79,625.89v-7.28h3.09v-4h18.83v1.56h.88v2.08H889v-2.08h.88V592.51h0c0-5.93-5.6-7.67-5.6-7.67s-4.95,1.54-5.55,6.65l-18.88-10.3V536.06c0-20.7-19.56-26.78-19.56-26.78V625.89Z"/></g></g></g><g id="Satellite_Receiver" data-name="Satellite Receiver"><rect id="Background-17" data-name="Background" class="cls-18" x="960" y="480" width="240" height="240"/><polygon id="Shadow-15" data-name="Shadow" class="cls-19" points="1200 639.72 1092.04 533.58 1088.9 550.61 1075.87 568.74 1046.29 539.16 1040.6 545.84 1061.81 567.05 1056.03 588.27 1031.8 590.43 1046.35 604.98 1065.26 623.88 1064.34 626.19 1034.03 595.88 1024.35 612.76 1010.36 598.77 1007.42 602.23 1024.16 618.97 1002.86 625.29 1020.52 642.95 1017.9 647.8 1014.73 661.42 1013.99 661.91 1073.52 720 1200 720 1200 639.72"/><g id="Satellite_Receiver-2" data-name="Satellite Receiver"><g id="Satellite_Receiver_3" data-name="Satellite Receiver 3"><path class="cls-32" d="M1083.71,658.2V628.83a4.47,4.47,0,0,1,4.47-4.47h16.5a5.57,5.57,0,0,1,5.13,3.88l8.44,29.57a3.7,3.7,0,0,1-3.66,4.86h-26.41A4.47,4.47,0,0,1,1083.71,658.2Zm4.47-30.26a.9.9,0,0,0-.89.89V658.2a.91.91,0,0,0,.89.89h26.41a.53.53,0,0,0,.25,0,.57.57,0,0,0,0-.26l-8.43-29.57a2,2,0,0,0-1.7-1.28Z"/><path class="cls-32" d="M1053.3,661.2a3.83,3.83,0,0,1-.56-3.39l8.44-29.57a5.58,5.58,0,0,1,5.14-3.88h16.5a4.47,4.47,0,0,1,4.47,4.47V658.2a4.47,4.47,0,0,1-4.47,4.47h-26.41A3.85,3.85,0,0,1,1053.3,661.2Zm13-33.26a2,2,0,0,0-1.7,1.28l-8.44,29.57a.77.77,0,0,0,0,.25.45.45,0,0,0,.26.05h26.41a.91.91,0,0,0,.89-.89V628.83a.9.9,0,0,0-.89-.89Z"/><rect class="cls-32" x="1082.1" y="598.24" width="6.79" height="15.11"/><polygon class="cls-58" points="1066.91 567.29 1071.37 563.08 1057.07 552.39 1042.77 541.71 1052.61 556.61 1062.45 571.5 1066.91 567.29"/><path class="cls-5" d="M1040.6,545.84a4.41,4.41,0,1,0,.18-6.24A4.41,4.41,0,0,0,1040.6,545.84Z"/><path class="cls-19" d="M1047,539.78a5.33,5.33,0,0,0-.73-.62,4.41,4.41,0,0,1-6.81,4.5,4.32,4.32,0,0,0,1.12,2.18,4.41,4.41,0,0,0,6.42-6.06Z"/><path class="cls-59" d="M1079.65,596.45a5.85,5.85,0,1,0,5.85-5.85A5.85,5.85,0,0,0,1079.65,596.45Z"/><path class="cls-59" d="M1085.5,607.68a10.05,10.05,0,0,1,10,10.05h-20.1A10.05,10.05,0,0,1,1085.5,607.68Z"/><rect class="cls-32" x="1063.64" y="617.73" width="43.72" height="7.52"/><path class="cls-28" d="M1090.34,592.12a41.42,41.42,0,0,1-58.55-1.69L1092,533.58A41.4,41.4,0,0,1,1090.34,592.12Z"/><path class="cls-19" d="M1101.38,549.41A41.41,41.41,0,0,1,1037.59,585l-5.8,5.47a41.43,41.43,0,0,0,69.59-41Z"/></g><g id="Satellite_Receiver_2" data-name="Satellite Receiver 2"><path class="cls-32" d="M1139.18,660.36v-15.2a2.32,2.32,0,0,1,2.31-2.31H1150a2.88,2.88,0,0,1,2.65,2l4.37,15.31a1.91,1.91,0,0,1-1.9,2.51h-13.66A2.32,2.32,0,0,1,1139.18,660.36Zm2.31-15.66a.47.47,0,0,0-.46.46v15.2a.47.47,0,0,0,.46.46h13.66a.32.32,0,0,0,.13,0s0-.06,0-.14l-4.37-15.3a1,1,0,0,0-.87-.66Z"/><path class="cls-32" d="M1123.45,661.91a2,2,0,0,1-.29-1.75l4.36-15.31a2.89,2.89,0,0,1,2.66-2h8.54a2.32,2.32,0,0,1,2.31,2.31v15.2a2.32,2.32,0,0,1-2.31,2.31h-13.67A2,2,0,0,1,1123.45,661.91Zm6.73-17.21a1.05,1.05,0,0,0-.88.66l-4.36,15.3a.26.26,0,0,0,0,.13.21.21,0,0,0,.13,0h13.67a.47.47,0,0,0,.46-.46v-15.2a.47.47,0,0,0-.46-.46Z"/><rect class="cls-32" x="1138.35" y="629.34" width="3.52" height="7.82"/><polygon class="cls-58" points="1130.48 613.32 1132.79 611.15 1125.4 605.62 1118 600.09 1123.09 607.8 1128.18 615.5 1130.48 613.32"/><path class="cls-5" d="M1116.88,602.23A2.28,2.28,0,1,0,1117,599,2.29,2.29,0,0,0,1116.88,602.23Z"/><path class="cls-19" d="M1120.19,599.09a2.24,2.24,0,0,0-.37-.32,2.29,2.29,0,0,1-3.53,2.33,2.38,2.38,0,0,0,.59,1.13,2.28,2.28,0,1,0,3.31-3.14Z"/><path class="cls-59" d="M1137.08,628.41a3,3,0,1,0,3-3A3,3,0,0,0,1137.08,628.41Z"/><path class="cls-59" d="M1140.1,634.22a5.2,5.2,0,0,1,5.2,5.2h-10.4A5.2,5.2,0,0,1,1140.1,634.22Z"/><rect class="cls-32" x="1128.79" y="639.42" width="22.62" height="3.89"/><path class="cls-28" d="M1142.61,626.17a21.43,21.43,0,0,1-30.29-.88l31.17-29.41A21.43,21.43,0,0,1,1142.61,626.17Z"/><path class="cls-19" d="M1148.32,604.07a21.43,21.43,0,0,1-33,18.4l-3,2.82a21.43,21.43,0,0,0,36-21.22Z"/></g><g id="Satellite_Receiver_1" data-name="Satellite Receiver 1"><path class="cls-32" d="M1029.72,660.36v-15.2a2.32,2.32,0,0,1,2.32-2.31h8.53a2.89,2.89,0,0,1,2.66,2l4.36,15.31a2,2,0,0,1-.29,1.75,2,2,0,0,1-1.6.76H1032A2.32,2.32,0,0,1,1029.72,660.36ZM1032,644.7a.47.47,0,0,0-.47.46v15.2a.47.47,0,0,0,.47.46h13.66a.46.46,0,0,0,.13,0,.29.29,0,0,0,0-.14l-4.36-15.3a1.05,1.05,0,0,0-.88-.66Z"/><path class="cls-32" d="M1014,661.91a2,2,0,0,1-.29-1.75l4.37-15.31a2.89,2.89,0,0,1,2.66-2h8.53a2.31,2.31,0,0,1,2.31,2.31v15.2a2.31,2.31,0,0,1-2.31,2.31H1015.6A2,2,0,0,1,1014,661.91Zm6.74-17.21a1,1,0,0,0-.88.66l-4.37,15.3c0,.08,0,.13,0,.13s0,0,.13,0h13.66a.47.47,0,0,0,.46-.46v-15.2a.47.47,0,0,0-.46-.46Z"/><rect class="cls-32" x="1028.89" y="629.34" width="3.52" height="7.82"/><polygon class="cls-58" points="1021.03 613.32 1023.34 611.15 1015.94 605.62 1008.54 600.09 1013.63 607.8 1018.72 615.5 1021.03 613.32"/><path class="cls-5" d="M1007.42,602.23a2.28,2.28,0,1,0,.09-3.23A2.29,2.29,0,0,0,1007.42,602.23Z"/><path class="cls-19" d="M1010.74,599.09a2.3,2.3,0,0,0-.38-.32,2.28,2.28,0,0,1-3.52,2.33,2.28,2.28,0,1,0,3.9-2Z"/><path class="cls-59" d="M1027.62,628.41a3,3,0,1,0,3-3A3,3,0,0,0,1027.62,628.41Z"/><path class="cls-59" d="M1030.65,634.22a5.2,5.2,0,0,1,5.2,5.2h-10.4A5.2,5.2,0,0,1,1030.65,634.22Z"/><rect class="cls-32" x="1019.34" y="639.42" width="22.62" height="3.89"/><path class="cls-28" d="M1033.15,626.17a21.43,21.43,0,0,1-30.29-.88L1034,595.88A21.43,21.43,0,0,1,1033.15,626.17Z"/><path class="cls-19" d="M1038.86,604.07a21.42,21.42,0,0,1-33,18.4l-3,2.82a21.43,21.43,0,0,0,36-21.22Z"/></g><g id="Star-15" data-name="Star"><path class="cls-5" d="M1132.87,530.15a7.21,7.21,0,0,1-9.68-3.2,7.2,7.2,0,0,1-3.2,9.67,7.21,7.21,0,0,1,9.67,3.21A7.22,7.22,0,0,1,1132.87,530.15Z"/><path class="cls-5" d="M1075.22,521.88a4.54,4.54,0,0,0-7.71,4.79,4.54,4.54,0,1,0,7.71-4.79Z"/><path class="cls-5" d="M1003.22,552.55a3.35,3.35,0,1,0-5.7,3.53,3.35,3.35,0,0,0,5.7-3.53Z"/><ellipse class="cls-5" cx="982.27" cy="587.26" rx="13.3" ry="3.12" transform="translate(186.29 1409.54) rotate(-76.8)"/><path class="cls-5" d="M1164.85,630.85a4.54,4.54,0,0,0-7.71,4.79,4.54,4.54,0,0,0,7.71-4.79Z"/></g></g></g><g id="Satellite"><rect id="Background-18" data-name="Background" class="cls-18" x="240" y="720" width="240" height="240"/><polygon class="cls-19" points="480 869.13 404.63 793.19 400.58 790.41 393.04 795.34 382.46 811.74 362.09 791.37 307.03 789.75 327.56 840.02 348.02 860.49 343.4 866.07 334.52 859.53 329.98 866.31 322.13 861.45 321.36 861.45 309.06 878.52 309.47 880.08 328.58 892.91 327.2 895.85 390.82 960 480 960 480 869.13"/><g id="Satellite-2" data-name="Satellite"><g id="Satellite-3" data-name="Satellite"><rect class="cls-5" x="403.98" y="826.37" width="29.12" height="45.84" transform="translate(-516.28 699.03) rotate(-54.63)"/><rect class="cls-33" x="397.76" y="833.13" width="23.73" height="19.66" transform="translate(-514.87 689.09) rotate(-54.63)"/><rect class="cls-33" x="415.59" y="845.78" width="23.73" height="19.66" transform="translate(-517.68 708.98) rotate(-54.64)"/><rect class="cls-5" x="320.42" y="767.05" width="29.12" height="45.84" transform="translate(-503.11 605.9) rotate(-54.63)"/><rect class="cls-33" x="314.2" y="773.81" width="23.73" height="19.66" transform="translate(-501.7 595.96) rotate(-54.63)"/><rect class="cls-33" x="332.02" y="786.47" width="23.73" height="19.66" transform="translate(-504.51 615.82) rotate(-54.63)"/><rect class="cls-5" x="302.73" y="791.97" width="29.12" height="45.84" transform="translate(-530.87 601.97) rotate(-54.63)"/><rect class="cls-33" x="296.52" y="798.73" width="23.73" height="19.66" transform="matrix(0.58, -0.82, 0.82, 0.58, -529.47, 592.07)"/><rect class="cls-33" x="314.34" y="811.38" width="23.73" height="19.66" transform="translate(-532.28 611.92) rotate(-54.64)"/><rect class="cls-5" x="386.3" y="851.28" width="29.12" height="45.84" transform="translate(-544.04 695.1) rotate(-54.63)"/><rect class="cls-33" x="380.08" y="858.04" width="23.73" height="19.66" transform="translate(-542.64 685.19) rotate(-54.64)"/><rect class="cls-33" x="397.91" y="870.69" width="23.73" height="19.66" transform="translate(-545.45 705.06) rotate(-54.64)"/><path class="cls-30" d="M339.13,866.46a3.63,3.63,0,1,1,.86,5.07A3.63,3.63,0,0,1,339.13,866.46Z"/><path class="cls-30" d="M344.72,855.22A5.58,5.58,0,1,1,346,863,5.57,5.57,0,0,1,344.72,855.22Z"/><rect class="cls-30" x="339.5" y="859.16" width="15.64" height="4.06" transform="translate(-555.98 645.94) rotate(-54.63)"/><rect class="cls-30" x="385.21" y="794.76" width="15.64" height="4.06" transform="translate(-484.2 656.05) rotate(-54.63)"/><rect class="cls-30" x="395.53" y="784.28" width="4.06" height="12.27" transform="translate(-477.09 657.06) rotate(-54.63)"/><rect class="cls-5" x="337.27" y="817.22" width="56.79" height="36.08" transform="translate(-527.11 650) rotate(-54.63)"/><polygon class="cls-30" points="386.41 854.96 378.02 849.01 379.36 846.96 387.75 852.91 386.41 854.96"/><rect class="cls-30" x="371.85" y="859.62" width="2.36" height="10.28" transform="translate(-548.07 668.47) rotate(-54.64)"/><polygon class="cls-30" points="331.74 834.12 340.13 840.07 338.74 841.87 330.36 835.92 331.74 834.12"/><polygon class="cls-30" points="341.56 820.13 349.95 826.08 348.6 828.13 340.22 822.18 341.56 820.13"/><rect class="cls-30" x="399.4" y="820.97" width="2.36" height="10.28" transform="translate(-504.95 674.67) rotate(-54.64)"/><rect class="cls-30" x="389.56" y="834.84" width="2.36" height="10.28" transform="translate(-520.4 672.46) rotate(-54.64)"/><polygon class="cls-30" points="349.43 809.21 357.81 815.16 356.42 816.95 348.04 811 349.43 809.21"/><polygon class="cls-30" points="359.27 795.34 367.65 801.29 366.26 803.09 357.88 797.14 359.27 795.34"/><path class="cls-5" d="M396.81,822.54a18,18,0,1,1-4.27-25.15A18,18,0,0,1,396.81,822.54Z"/><rect class="cls-30" x="318.1" y="873.72" width="0.89" height="24.52" transform="translate(-588.36 633.09) rotate(-54.64)"/><rect class="cls-30" x="303.49" y="869.07" width="24.52" height="0.89" transform="translate(-576.05 623.66) rotate(-54.63)"/><rect class="cls-30" x="308.37" y="876.39" width="24.52" height="0.89" transform="translate(-141.97 65.88) rotate(-9.62)"/><path class="cls-5" d="M343.45,873a19.85,19.85,0,0,0-22.89-16.24l6.64,39.13A19.85,19.85,0,0,0,343.45,873Z"/><path class="cls-5" d="M308.1,876.26a2.66,2.66,0,1,1-2.18,3.07A2.67,2.67,0,0,1,308.1,876.26Z"/><path class="cls-35" d="M371.28,817.69a4.09,4.09,0,0,1,5.67-1l2.48,1.76a4.09,4.09,0,0,1,1,5.67l-20.51,28.89a4.07,4.07,0,0,1-5.66,1l-2.48-1.76a4.08,4.08,0,0,1-1-5.67Z"/></g><g id="Star-16" data-name="Star"><path class="cls-5" d="M333.63,739.1a4.54,4.54,0,0,1-6.25-1.47,4.54,4.54,0,0,1-1.46,6.25,4.53,4.53,0,0,1,6.24,1.46A4.53,4.53,0,0,1,333.63,739.1Z"/><path class="cls-5" d="M346.74,925.92a3.34,3.34,0,0,1-4.62-1.08,3.36,3.36,0,0,1-1.09,4.62,3.35,3.35,0,0,1,4.62,1.08A3.36,3.36,0,0,1,346.74,925.92Z"/><path class="cls-5" d="M432.16,824.47a3.36,3.36,0,0,1-4.62-1.08,3.35,3.35,0,1,0,3.54,5.7A3.36,3.36,0,0,1,432.16,824.47Z"/><path class="cls-5" d="M282.56,827.71a4.53,4.53,0,0,1-6.24-1.47,4.54,4.54,0,0,1-1.47,6.25A4.54,4.54,0,0,1,281.1,834,4.53,4.53,0,0,1,282.56,827.71Z"/><path class="cls-5" d="M426.72,845.66a4.54,4.54,0,0,1-6.25-1.47,4.54,4.54,0,0,1-1.46,6.25,4.54,4.54,0,0,1,6.25,1.46A4.53,4.53,0,0,1,426.72,845.66Z"/></g></g></g><g id="Saturn"><rect id="Background-19" data-name="Background" class="cls-18" x="480" y="720" width="240" height="240"/><polygon class="cls-19" points="720 823.51 691.02 794.6 643.83 803.66 527.35 865.54 508.98 885.4 583.69 960 720 960 720 823.51"/><g id="Saturn-2" data-name="Saturn"><g id="Saturn-3" data-name="Saturn"><path class="cls-60" d="M658.76,834.11a59.05,59.05,0,1,1-64.65-52.87A59.05,59.05,0,0,1,658.76,834.11Z"/><path class="cls-61" d="M577.63,836.82s34.31-2.2,66.2-36.39a59.18,59.18,0,0,0-16.17-12.61C620.93,801.69,606.79,819.13,577.63,836.82Z"/><path class="cls-62" d="M658.64,847c-28.42,26.54-60.92,40.44-82,47.24a58.17,58.17,0,0,0,5.57,2.07c13-3,35.12-10.05,51.29-24.91,0,0-6.89,16.36-32.28,27.62,1.54,0,3.08-.13,4.63-.28A59.37,59.37,0,0,0,618.77,896a86.14,86.14,0,0,0,15-11,31.21,31.21,0,0,1-3.37,5.56A59.16,59.16,0,0,0,658.64,847Z"/><path class="cls-63" d="M594.11,781.24a59.08,59.08,0,0,0-51.58,45.13c20.29-11,47.47-27,68.63-44.37A59.36,59.36,0,0,0,594.11,781.24Z"/><path class="cls-61" d="M615.59,836.47c-14.5,14.43-44.34,26.35-66.37,33.69a57.91,57.91,0,0,0,4.26,6.22C599.57,859.05,615.59,836.47,615.59,836.47Z"/><path class="cls-64" d="M655.59,820c-16.21,18.61-50.26,51.36-96.75,62.3a59.2,59.2,0,0,0,17.84,11.92c21-6.8,53.54-20.7,82-47.24a58.66,58.66,0,0,0,.41-6.66A59.12,59.12,0,0,0,655.59,820Z"/><path class="cls-64" d="M633.54,871.42c-16.17,14.86-38.3,21.88-51.29,24.91a58.64,58.64,0,0,0,19,2.71C626.65,887.78,633.54,871.42,633.54,871.42Z"/><path class="cls-60" d="M618.77,896a58.42,58.42,0,0,0,11.67-5.39,31.21,31.21,0,0,0,3.37-5.56A86.14,86.14,0,0,1,618.77,896Z"/><path class="cls-61" d="M633.56,818.34a57.05,57.05,0,0,0,16.92-9c-.91-1.51-1.9-3-2.94-4.38A92.37,92.37,0,0,1,633.56,818.34Z"/><path class="cls-65" d="M691,794.6c-2.89-5.8-21.33-3-47,6a57.28,57.28,0,0,1,4.14,5.18c11.15-2.82,18.64-3,20.18.11s-3.09,9-12.05,16.18c-11.16,9-29,20.09-50,30.53s-40.55,18-54.45,21.56c-11.15,2.82-18.64,3-20.18-.11s3.09-9,12.05-16.18a61.59,61.59,0,0,1-1.65-6.42c-22.66,15.08-36,28.12-33.09,33.92s21.33,3,47-6a505.4,505.4,0,0,0,101.94-50.85C680.58,813.44,693.92,800.4,691,794.6Z"/></g><g id="Star-17" data-name="Star"><path class="cls-5" d="M548.23,773.86a6.68,6.68,0,0,1-6.68-6.68,6.68,6.68,0,0,1-6.67,6.68,6.68,6.68,0,0,1,6.67,6.68A6.68,6.68,0,0,1,548.23,773.86Z"/><path class="cls-5" d="M590.63,923.55a6.67,6.67,0,0,1-6.67-6.67,6.68,6.68,0,0,1-6.68,6.67,6.68,6.68,0,0,1,6.68,6.68A6.67,6.67,0,0,1,590.63,923.55Z"/><path class="cls-5" d="M687.43,875.31a6.67,6.67,0,0,1-6.67-6.67,6.68,6.68,0,0,1-6.68,6.67,6.68,6.68,0,0,1,6.68,6.68A6.68,6.68,0,0,1,687.43,875.31Z"/></g></g></g><g id="Space_Observation" data-name="Space Observation"><rect id="Background-20" data-name="Background" class="cls-18" x="720" y="720" width="240" height="240"/><polygon id="Shadow-16" data-name="Shadow" class="cls-19" points="960 871.43 883.79 796.53 867.83 796.03 847.09 775.3 846.45 775.86 848.6 781.82 878.01 807.23 857.75 830.3 824.94 797.49 810 797.49 787.8 775.3 790.05 789.6 802.93 802.48 800.28 829.38 781.39 833.64 794.17 846.42 789.65 875.55 774.82 905.28 830.66 960 960 960 960 871.43"/><g id="Space_Observation-2" data-name="Space Observation"><g id="Space_Observation-3" data-name="Space Observation"><rect class="cls-22" x="784.93" y="777.24" width="7.83" height="11.23" transform="translate(-322.52 787.1) rotate(-45)"/><rect class="cls-66" x="792.04" y="785.69" width="7.07" height="7.8" transform="translate(-325.3 793.83) rotate(-45)"/><path class="cls-14" d="M787.23,774.72l.34.34a.8.8,0,0,1,0,1.13l-5.39,5.39a.8.8,0,0,1-1.13,0l-.34-.34Z"/><rect class="cls-67" x="790.58" y="775.34" width="0.87" height="10.6" transform="translate(-320.31 787.98) rotate(-45)"/><rect class="cls-67" x="797.06" y="784.21" width="0.87" height="7.03" transform="translate(-323.44 793.63) rotate(-44.95)"/><path class="cls-5" d="M784,778h0l3.19-3.19s-.62-.14-3.57,2.81h0c-3,3-2.81,3.58-2.81,3.58L784,778h0Z"/><rect class="cls-22" x="793.35" y="802.6" width="32.42" height="25.58"/><circle class="cls-22" cx="809.56" cy="802.6" r="16.21"/><rect class="cls-68" x="787.08" y="828.18" width="46.21" height="23.84"/><rect class="cls-66" x="781.39" y="828.23" width="57.59" height="5.41"/><rect class="cls-22" x="793.35" y="802.6" width="32.42" height="25.58"/><rect class="cls-68" x="787.08" y="828.18" width="46.21" height="23.84"/><rect class="cls-66" x="781.39" y="828.23" width="57.59" height="5.41"/><path class="cls-19" d="M833.29,852V833.64H839v-5.41h-5.69v-.05h-7.53V802.6a16.2,16.2,0,0,0-16.2-16.21V852Z"/><rect class="cls-22" x="844.22" y="777.24" width="7.83" height="11.23" transform="translate(-305.15 829.02) rotate(-45)"/><rect class="cls-66" x="851.33" y="785.69" width="7.07" height="7.8" transform="translate(-307.94 835.76) rotate(-45)"/><path class="cls-14" d="M846.52,774.72l.34.34a.8.8,0,0,1,0,1.13l-5.39,5.39a.8.8,0,0,1-1.13,0l-.34-.34Z"/><rect class="cls-67" x="849.87" y="775.34" width="0.87" height="10.6" transform="translate(-302.95 829.81) rotate(-45)"/><rect class="cls-67" x="856.34" y="784.21" width="0.87" height="7.03" transform="translate(-306.07 836.46) rotate(-45)"/><path class="cls-5" d="M843.26,778h0l3.19-3.19s-.62-.14-3.57,2.81h0c-3,3-2.82,3.58-2.82,3.58l3.2-3.19h0Z"/><rect class="cls-22" x="852.63" y="802.6" width="32.42" height="25.58"/><path class="cls-22" d="M885.05,802.6a16.21,16.21,0,1,1-16.21-16.21A16.21,16.21,0,0,1,885.05,802.6Z"/><rect class="cls-68" x="846.37" y="828.18" width="46.21" height="23.84"/><rect class="cls-66" x="840.68" y="828.23" width="57.59" height="5.41"/><rect class="cls-22" x="852.63" y="802.6" width="32.42" height="25.58"/><rect class="cls-68" x="846.37" y="828.18" width="46.21" height="23.84"/><rect class="cls-66" x="840.68" y="828.23" width="57.59" height="5.41"/><path class="cls-19" d="M892.58,852V833.64h5.69v-5.41h-5.69v-.05h-7.53V802.6a16.21,16.21,0,0,0-16.21-16.21V852Z"/><rect class="cls-68" x="774.82" y="851.96" width="130.36" height="53.32"/><rect class="cls-22" x="781.39" y="860.18" width="55.55" height="7.24"/><rect class="cls-22" x="781.79" y="873.66" width="55.55" height="7.24"/><rect class="cls-22" x="781.79" y="887.91" width="55.55" height="7.24"/><rect class="cls-22" x="841.5" y="859.79" width="55.55" height="7.24"/><rect class="cls-22" x="841.9" y="873.28" width="55.55" height="7.24"/><rect class="cls-22" x="841.9" y="887.53" width="55.55" height="7.24"/></g><g id="Star-18" data-name="Star"><path class="cls-5" d="M759,824.78a7.22,7.22,0,0,1-4-9.39,7.22,7.22,0,0,1-9.39,4,7.22,7.22,0,0,1,4,9.39A7.22,7.22,0,0,1,759,824.78Z"/><circle class="cls-5" cx="935.5" cy="852.03" r="8.96"/><path class="cls-5" d="M875.09,766.44a4.54,4.54,0,1,0-8.68-2.64,4.54,4.54,0,0,0,8.68,2.64Z"/><path class="cls-5" d="M822.15,744.8a4.53,4.53,0,0,1-3-5.66,4.53,4.53,0,0,1-5.66,3,4.53,4.53,0,0,1,3,5.66A4.53,4.53,0,0,1,822.15,744.8Z"/></g></g></g><g id="Space_Robot" data-name="Space Robot"><rect id="Background-21" data-name="Background" class="cls-18" x="960" y="720" width="240" height="240"/><polygon id="Shadow-17" data-name="Shadow" class="cls-19" points="1200 834.16 1139.68 775.01 1101.56 822.91 1068.89 790.24 1033.69 790.24 1034.3 790.82 1038.32 858.94 1025.79 899.36 1019.62 904.37 1076.38 960 1200 960 1200 834.16"/><g id="Space_Robot-2" data-name="Space Robot"><g id="Space_Robot-3" data-name="Space Robot"><rect class="cls-69" x="1035.74" y="827.22" width="5.17" height="19.91"/><rect class="cls-5" x="1135.05" y="779.45" width="2.76" height="48.2"/><rect class="cls-35" x="1086.64" y="815.28" width="35.22" height="8.6" transform="translate(-220.27 1189.34) rotate(-52.18)"/><rect class="cls-5" x="1108.24" y="789.09" width="35.22" height="5.34" transform="translate(-189.95 1195.61) rotate(-52.18)"/><path class="cls-30" d="M1042.94,825.67a4.62,4.62,0,1,1-4.62-4.62A4.63,4.63,0,0,1,1042.94,825.67Z"/><path class="cls-30" d="M1045.44,841.46a7.11,7.11,0,1,1-7.11-7.1A7.11,7.11,0,0,1,1045.44,841.46Z"/><path class="cls-30" d="M1100.84,832.77a7.11,7.11,0,1,1-7.11-7.1A7.1,7.1,0,0,1,1100.84,832.77Z"/><path class="cls-30" d="M1141.43,779a5.51,5.51,0,1,1-5.51-5.5A5.5,5.5,0,0,1,1141.43,779Z"/><rect class="cls-30" x="1034.29" y="789.68" width="31.21" height="1.14"/><rect class="cls-30" x="1064.37" y="789.66" width="1.14" height="31.21"/><rect class="cls-30" x="1038.87" y="800.71" width="31.21" height="1.14" transform="translate(-257.63 981.13) rotate(-45.04)"/><path class="cls-5" d="M1033.67,822.11a25.26,25.26,0,0,0,35.72,0l-35.75-35.69A25.25,25.25,0,0,0,1033.67,822.11Z"/><path class="cls-5" d="M1067.9,792.62a3.38,3.38,0,1,1,0-4.78A3.38,3.38,0,0,1,1067.9,792.62Z"/><rect class="cls-35" x="1128.4" y="854.4" width="14.95" height="10.43" transform="matrix(1, 0, 0, 1, -0.97, 1.29)"/><rect class="cls-30" x="1118.01" y="854.92" width="10.39" height="9.42" transform="translate(-0.99 1.29) rotate(-0.07)"/><path class="cls-44" d="M1145,853.47h-.64a1.07,1.07,0,0,0-1.06,1.06v10.15a1.06,1.06,0,0,0,1.07,1.06h.63Z"/><rect class="cls-67" x="1128.85" y="854.91" width="14.12" height="1.16"/><rect class="cls-67" x="1118.46" y="855.5" width="9.36" height="1.16"/><path class="cls-5" d="M1145.05,859.61h0v-6s.72.45.73,6h0c0,5.56-.72,6-.72,6v-6Z"/><polygon class="cls-30" points="1106.3 876.1 1025.93 876.1 1014.23 876.1 1025.93 896.39 1106.3 896.39 1118 876.1 1106.3 876.1"/><circle class="cls-26" cx="1025.79" cy="896.39" r="10.09"/><path class="cls-70" d="M1032,896.39a6.17,6.17,0,1,1-6.16-6.17A6.16,6.16,0,0,1,1032,896.39Z"/><circle class="cls-26" cx="1045.96" cy="896.39" r="10.09"/><path class="cls-70" d="M1052.12,896.39a6.17,6.17,0,1,1-6.16-6.17A6.16,6.16,0,0,1,1052.12,896.39Z"/><circle class="cls-26" cx="1066.12" cy="896.39" r="10.09"/><path class="cls-70" d="M1072.29,896.39a6.17,6.17,0,1,1-6.17-6.17A6.17,6.17,0,0,1,1072.29,896.39Z"/><path class="cls-26" d="M1096.38,896.39a10.09,10.09,0,1,1-10.09-10.08A10.09,10.09,0,0,1,1096.38,896.39Z"/><path class="cls-70" d="M1092.46,896.39a6.17,6.17,0,1,1-6.17-6.17A6.17,6.17,0,0,1,1092.46,896.39Z"/><path class="cls-26" d="M1116.55,896.39a10.09,10.09,0,1,1-10.09-10.08A10.09,10.09,0,0,1,1116.55,896.39Z"/><path class="cls-70" d="M1112.63,896.39a6.17,6.17,0,1,1-6.17-6.17A6.17,6.17,0,0,1,1112.63,896.39Z"/><polygon class="cls-5" points="1109.03 841.34 1067.95 841.34 1064.36 841.34 1014.23 841.34 1014.23 855.8 1014.23 876.1 1118 876.1 1118 855.8 1118 854.93 1109.03 841.34"/><rect class="cls-69" x="1083.95" y="837.18" width="19.57" height="4.16"/><path class="cls-30" d="M1129.92,832.18a3.75,3.75,0,1,1,3.75,3.75h0v3.36h0a7.11,7.11,0,1,0-7.11-7.11Z"/><rect class="cls-44" x="1014.23" y="855.8" width="103.77" height="6.27"/></g><g id="Star-19" data-name="Star"><path class="cls-5" d="M1004.14,798a7.94,7.94,0,0,1-7.93-7.94,7.94,7.94,0,0,1-7.93,7.94,7.93,7.93,0,0,1,7.93,7.93A7.93,7.93,0,0,1,1004.14,798Z"/><path class="cls-5" d="M1164.13,799.12a5.94,5.94,0,0,1-5.94-5.94,5.94,5.94,0,0,1-5.94,5.94,5.94,5.94,0,0,1,5.94,5.94A5.94,5.94,0,0,1,1164.13,799.12Z"/><circle class="cls-5" cx="1072.29" cy="930.08" r="10.94"/><circle class="cls-5" cx="1052.43" cy="749.12" r="11.54"/></g></g></g><g id="Space_Robot-4" data-name="Space Robot"><rect id="Background-22" data-name="Background" class="cls-18" x="480" y="960" width="240" height="240"/><polygon id="Shadow-18" data-name="Shadow" class="cls-19" points="720 1109.92 605.38 994.54 559.85 1081.11 604.35 1125.61 585.61 1166.1 619.08 1200 720 1200 720 1109.92"/><g id="Spacecraft"><g id="Star-20" data-name="Star"><circle class="cls-5" cx="526.96" cy="1041.23" r="11.41"/><path class="cls-5" d="M646.05,1129.52a6.7,6.7,0,0,1-6.7-6.7,6.7,6.7,0,0,1-6.7,6.7,6.7,6.7,0,0,1,6.7,6.7A6.7,6.7,0,0,1,646.05,1129.52Z"/><path class="cls-5" d="M666.67,1057a6.7,6.7,0,0,1-6.7-6.69,6.69,6.69,0,0,1-6.69,6.69,6.69,6.69,0,0,1,6.69,6.7A6.7,6.7,0,0,1,666.67,1057Z"/><path class="cls-5" d="M545.06,1111.77a6.69,6.69,0,0,1-6.7-6.69,6.69,6.69,0,0,1-6.7,6.69,6.7,6.7,0,0,1,6.7,6.7A6.7,6.7,0,0,1,545.06,1111.77Z"/></g><g id="Smoke"><polygon class="cls-5" points="599.59 1097.47 588 1097.47 585.61 1131.33 599.59 1131.33 599.59 1097.47"/><polygon class="cls-5" points="599.59 1097.47 611.18 1097.47 613.57 1131.33 599.59 1131.33 599.59 1097.47"/><path class="cls-5" d="M601.92,1114.77a6.52,6.52,0,1,1-6.52-6.52A6.52,6.52,0,0,1,601.92,1114.77Z"/><path class="cls-5" d="M609.3,1118.29a6.52,6.52,0,1,1-6.52-6.52A6.52,6.52,0,0,1,609.3,1118.29Z"/><path class="cls-5" d="M601.92,1124.81a6.52,6.52,0,1,1-6.52-6.52A6.52,6.52,0,0,1,601.92,1124.81Z"/><path class="cls-5" d="M600.32,1133.19a6.52,6.52,0,1,1-6.52-6.52A6.52,6.52,0,0,1,600.32,1133.19Z"/><path class="cls-5" d="M611.89,1133.19a6.52,6.52,0,1,1-6.51-6.52A6.51,6.51,0,0,1,611.89,1133.19Z"/><path class="cls-5" d="M610,1126.67a6.52,6.52,0,1,1-6.52-6.51A6.52,6.52,0,0,1,610,1126.67Z"/><path class="cls-5" d="M610,1138.65a6.52,6.52,0,1,1-6.52-6.52A6.51,6.51,0,0,1,610,1138.65Z"/><path class="cls-5" d="M616.55,1133.19a6.52,6.52,0,1,1-6.52-6.52A6.52,6.52,0,0,1,616.55,1133.19Z"/><path class="cls-5" d="M592.87,1131.33a6.52,6.52,0,1,1-6.52-6.52A6.52,6.52,0,0,1,592.87,1131.33Z"/><path class="cls-5" d="M592.12,1141.84a6.52,6.52,0,1,1-6.51-6.52A6.51,6.51,0,0,1,592.12,1141.84Z"/><path class="cls-5" d="M587.62,1150.74a5.3,5.3,0,1,1-5.29-5.3A5.29,5.29,0,0,1,587.62,1150.74Z"/><path class="cls-5" d="M601.92,1142.77a6.52,6.52,0,1,1-6.52-6.52A6.52,6.52,0,0,1,601.92,1142.77Z"/><path class="cls-5" d="M603.6,1156.65a11.48,11.48,0,1,1-11.48-11.49A11.48,11.48,0,0,1,603.6,1156.65Z"/><path class="cls-5" d="M623.81,1149.29A12.85,12.85,0,1,1,611,1136.44,12.85,12.85,0,0,1,623.81,1149.29Z"/></g><g id="Fire"><path class="cls-50" d="M605.21,1103.26c0,3.2-2.59,13.4-5.78,13.4s-5.79-10.2-5.79-13.4a5.79,5.79,0,1,1,11.57,0Z"/><path class="cls-51" d="M603.5,1102.34c0,2.25-1.82,9.43-4.07,9.43s-4.07-7.18-4.07-9.43a4.07,4.07,0,0,1,8.14,0Z"/></g><g id="Spacecraft-2" data-name="Spacecraft"><path class="cls-35" d="M638.5,1056.92l-13.79-11.73a11.44,11.44,0,0,1-3-4.51l-5.27-16.83c-.46-1.48-1.57-2.83-2.47-3l-.16,0h-1.48v66.53a2,2,0,0,0,2.7,2l22.91-7a4.06,4.06,0,0,0,2.69-3.64v-17.18A6.93,6.93,0,0,0,638.5,1056.92Z"/><path class="cls-35" d="M585.77,1020.82l-.16,0c-.9.18-2,1.53-2.47,3l-5.27,16.83a11.44,11.44,0,0,1-3,4.51l-13.79,11.73a6.93,6.93,0,0,0-2.14,4.64v17.18a4.06,4.06,0,0,0,2.69,3.64l22.91,7a2,2,0,0,0,2.7-2v-66.53Z"/><path class="cls-31" d="M612.34,1087.35a2,2,0,0,0,2.7,2l22.91-7a4.06,4.06,0,0,0,2.69-3.64h-28.3Z"/><path class="cls-31" d="M561.64,1082.38l22.91,7a2,2,0,0,0,2.7-2v-8.61H559A4.06,4.06,0,0,0,561.64,1082.38Z"/><rect class="cls-71" x="587.25" y="1088.76" width="12.55" height="8.72" rx="1.41"/><rect class="cls-71" x="599.79" y="1088.76" width="12.55" height="8.72" rx="1.41"/><rect class="cls-72" x="593.52" y="1088.76" width="12.55" height="8.72" rx="1.41"/><rect class="cls-5" x="587.25" y="1009.79" width="25.09" height="80.37"/><polygon class="cls-55" points="636.43 1069.7 633.82 1069.32 632.65 1066.96 631.49 1069.32 628.88 1069.7 630.76 1071.54 630.32 1074.14 632.65 1072.91 634.98 1074.14 634.54 1071.54 636.43 1069.7"/><path class="cls-31" d="M599.79,991.72c-8.6,0-12.54,18.07-12.54,18.07h25.09S608.4,991.72,599.79,991.72Z"/><path class="cls-73" d="M599.79,1013.93a8.35,8.35,0,0,0-8.35,8.35h16.71A8.35,8.35,0,0,0,599.79,1013.93Z"/><path class="cls-33" d="M570.11,1070.55a3.36,3.36,0,1,1-3.36-3.36A3.36,3.36,0,0,1,570.11,1070.55Z"/><rect class="cls-32" x="591.44" y="1022.28" width="16.71" height="56.46"/><path class="cls-59" d="M601.93,1091.28a1.42,1.42,0,0,0,1.41,1.41h9.73a1.41,1.41,0,0,0,1.41-1.41v-9.58a2.58,2.58,0,0,0-1.24-2.06l-6-3.19a6.64,6.64,0,0,0-2.65-.66h-1.2a1.41,1.41,0,0,0-1.41,1.41Z"/><path class="cls-59" d="M597.65,1091.28a1.41,1.41,0,0,1-1.4,1.41h-9.73a1.41,1.41,0,0,1-1.41-1.41v-9.58a2.58,2.58,0,0,1,1.24-2.06l6-3.19a6.6,6.6,0,0,1,2.65-.66h1.2a1.41,1.41,0,0,1,1.4,1.41Z"/><rect class="cls-74" x="597.65" y="1073.44" width="4.28" height="19.24" rx="1.41"/></g></g></g><g id="Space_Robot-5" data-name="Space Robot"><rect id="Background-23" data-name="Background" class="cls-18" x="720" y="960" width="240" height="240"/><polygon id="Shadow-19" data-name="Shadow" class="cls-19" points="960 1112.89 934.25 1087.2 926.13 1087.2 904.53 1065.62 910.13 1082.41 887.94 1060.22 874.06 1059.48 839.87 1025.29 825.01 1071.01 798.37 1088.01 775.98 1065.62 771.4 1093.88 757.61 1122.14 835.59 1200 960 1200 960 1112.89"/><g id="Star-21" data-name="Star"><g id="White_Star" data-name="White Star"><path class="cls-5" d="M796.05,1025.29a10.9,10.9,0,0,1-10.89-10.89,10.9,10.9,0,0,1-10.9,10.89,10.9,10.9,0,0,1,10.9,10.89A10.9,10.9,0,0,1,796.05,1025.29Z"/><circle class="cls-5" cx="902.82" cy="1039.67" r="10.89"/><circle class="cls-5" cx="786.87" cy="1153.65" r="10.89"/><path class="cls-5" d="M846.8,1131.86A10.89,10.89,0,0,1,835.91,1121a10.9,10.9,0,0,1-10.9,10.89,10.9,10.9,0,0,1,10.9,10.89A10.89,10.89,0,0,1,846.8,1131.86Z"/><path class="cls-5" d="M911.31,1140.81a9,9,0,0,1-8.95-9,9,9,0,0,1-9,9,9,9,0,0,1,9,9A9,9,0,0,1,911.31,1140.81Z"/></g><g id="Star-22" data-name="Star"><polygon class="cls-41" points="887.94 1060.22 854.72 1055.39 839.87 1025.29 825.01 1055.39 791.79 1060.22 815.83 1083.65 810.16 1116.73 839.87 1101.11 869.58 1116.73 863.9 1083.65 887.94 1060.22"/><polygon class="cls-19" points="854.72 1055.39 839.87 1025.29 839.87 1075.84 854.72 1055.39"/><polygon class="cls-19" points="863.9 1083.65 887.94 1060.22 839.87 1075.84 863.9 1083.65"/><polygon class="cls-19" points="810.16 1116.73 839.87 1101.11 839.87 1075.84 810.16 1116.73"/><polygon class="cls-19" points="839.87 1075.84 869.58 1116.73 863.9 1083.65 839.87 1075.84"/><polygon class="cls-19" points="791.79 1060.22 815.83 1083.65 839.87 1075.84 791.79 1060.22"/><polygon class="cls-42" points="934.25 1087.2 913.72 1084.22 904.53 1065.62 895.35 1084.22 874.82 1087.2 889.68 1101.69 886.17 1122.14 904.53 1112.48 922.9 1122.14 919.39 1101.69 934.25 1087.2"/><polygon class="cls-19" points="913.72 1084.22 904.53 1065.62 904.53 1096.86 913.72 1084.22"/><polygon class="cls-19" points="919.39 1101.69 934.25 1087.2 904.53 1096.86 919.39 1101.69"/><polygon class="cls-19" points="886.17 1122.14 904.53 1112.48 904.53 1096.86 886.17 1122.14"/><polygon class="cls-19" points="904.53 1096.86 922.9 1122.14 919.39 1101.69 904.53 1096.86"/><polygon class="cls-19" points="874.82 1087.2 889.68 1101.69 904.53 1096.86 874.82 1087.2"/><polygon class="cls-43" points="805.69 1087.2 785.16 1084.22 775.98 1065.62 766.79 1084.22 746.26 1087.2 761.12 1101.69 757.61 1122.14 775.98 1112.48 794.34 1122.14 790.83 1101.69 805.69 1087.2"/><polygon class="cls-19" points="785.16 1084.22 775.98 1065.62 775.98 1096.86 785.16 1084.22"/><polygon class="cls-19" points="790.83 1101.69 805.69 1087.2 775.98 1096.86 790.83 1101.69"/><polygon class="cls-19" points="757.61 1122.14 775.98 1112.48 775.98 1096.86 757.61 1122.14"/><polygon class="cls-19" points="775.98 1096.86 794.34 1122.14 790.83 1101.69 775.98 1096.86"/><polygon class="cls-19" points="746.26 1087.2 761.12 1101.69 775.98 1096.86 746.26 1087.2"/></g></g></g><rect id="Background-24" data-name="Background" class="cls-18" y="960" width="240" height="240"/><rect id="Background-25" data-name="Background" class="cls-18" x="960" y="960" width="240" height="240"/></svg>