<svg xmlns="http://www.w3.org/2000/svg" viewBox="0 0 116.11 178.41"><defs><style>.cls-1{fill:#61c9d6;}.cls-2{fill:#90ecff;}.cls-3{fill:#76d8e5;}.cls-4{fill:#fff;}.cls-5{fill:#002c40;}.cls-6{fill:#231f20;}.cls-7{fill:#ff4f54;}</style></defs><title>Alien</title><g id="Layer_2" data-name="Layer 2"><g id="Space"><g id="Alien"><g id="Alien-2" data-name="Alien"><g id="Alien-3" data-name="Alien"><rect class="cls-1" x="16.09" y="1.66" width="7.37" height="51.44" transform="translate(-11.4 14.38) rotate(-31.53)"/><path class="cls-2" d="M14.26,3.67A7.7,7.7,0,1,1,3.67,1.14,7.7,7.7,0,0,1,14.26,3.67Z"/><rect class="cls-1" x="70.62" y="23.7" width="51.44" height="7.37" transform="translate(22.62 95.18) rotate(-58.47)"/><path class="cls-2" d="M101.85,3.67a7.7,7.7,0,1,0,10.59-2.53A7.71,7.71,0,0,0,101.85,3.67Z"/><circle class="cls-2" cx="57.53" cy="79.87" r="57.24" transform="translate(-30.88 123.13) rotate(-80.31)"/><rect class="cls-2" x="0.29" y="79.87" width="114.48" height="98.55"/><circle class="cls-3" cx="57.19" cy="68.65" r="28.44" transform="translate(-22.65 108.76) rotate(-76.88)"/><circle class="cls-4" cx="57.19" cy="68.65" r="24.36"/><path class="cls-5" d="M73.49,68.65a16.3,16.3,0,1,1-16.3-16.3A16.3,16.3,0,0,1,73.49,68.65Z"/><path class="cls-3" d="M76.57,120.76a19.38,19.38,0,1,1-19.38-19.38A19.38,19.38,0,0,1,76.57,120.76Z"/><path class="cls-4" d="M73.79,120.76a16.61,16.61,0,1,1-16.6-16.6A16.6,16.6,0,0,1,73.79,120.76Z"/><path class="cls-5" d="M68.3,120.76a11.11,11.11,0,1,1-11.11-11.11A11.11,11.11,0,0,1,68.3,120.76Z"/><path class="cls-6" d="M57.19,166.39A12.8,12.8,0,0,0,70,153.59H44.39A12.8,12.8,0,0,0,57.19,166.39Z"/><path class="cls-7" d="M49.43,163.76a12.75,12.75,0,0,0,15.51,0,8.19,8.19,0,0,0-15.51,0Z"/><path class="cls-3" d="M16.63,76.7a1.23,1.23,0,1,1-1.23-1.23A1.23,1.23,0,0,1,16.63,76.7Z"/><path class="cls-3" d="M26.12,147.56a1.23,1.23,0,1,1-1.23-1.23A1.23,1.23,0,0,1,26.12,147.56Z"/><path class="cls-3" d="M8.37,141.37a1.23,1.23,0,1,1-1.23-1.23A1.24,1.24,0,0,1,8.37,141.37Z"/><path class="cls-3" d="M14.59,93.92a5.52,5.52,0,1,1-5.52-5.51A5.52,5.52,0,0,1,14.59,93.92Z"/><path class="cls-3" d="M94.71,144.91a5.52,5.52,0,1,1-5.52-5.52A5.52,5.52,0,0,1,94.71,144.91Z"/><path class="cls-3" d="M28.75,103.32a3.17,3.17,0,1,1-3.16-3.16A3.17,3.17,0,0,1,28.75,103.32Z"/><path class="cls-3" d="M97.87,90.76a3.17,3.17,0,1,1-3.16-3.16A3.15,3.15,0,0,1,97.87,90.76Z"/><path class="cls-3" d="M99.64,75a1.77,1.77,0,1,1-1.77-1.77A1.76,1.76,0,0,1,99.64,75Z"/><path class="cls-3" d="M105.79,106.49a1.53,1.53,0,1,1-1.53-1.54A1.53,1.53,0,0,1,105.79,106.49Z"/><path class="cls-3" d="M91.54,103.32a3.16,3.16,0,1,1-3.16-3.16A3.16,3.16,0,0,1,91.54,103.32Z"/><path class="cls-3" d="M12.24,118.69a3.17,3.17,0,1,1-3.17-3.16A3.17,3.17,0,0,1,12.24,118.69Z"/><path class="cls-3" d="M31.91,162.29a3.16,3.16,0,1,1-3.16-3.16A3.16,3.16,0,0,1,31.91,162.29Z"/><path class="cls-3" d="M99.5,167.37a3.16,3.16,0,1,1-3.16-3.17A3.16,3.16,0,0,1,99.5,167.37Z"/><path class="cls-3" d="M94.71,118.69a3.17,3.17,0,1,1-3.17-3.16A3.17,3.17,0,0,1,94.71,118.69Z"/><path class="cls-3" d="M107.42,130.64a3.16,3.16,0,1,1-3.16-3.17A3.16,3.16,0,0,1,107.42,130.64Z"/><path class="cls-3" d="M24.89,131.87a3.17,3.17,0,1,1-3.16-3.16A3.17,3.17,0,0,1,24.89,131.87Z"/><path class="cls-3" d="M16.34,153.59a3.16,3.16,0,1,1-3.16-3.16A3.16,3.16,0,0,1,16.34,153.59Z"/><path class="cls-3" d="M36,38.2A3.17,3.17,0,1,1,32.82,35,3.16,3.16,0,0,1,36,38.2Z"/><path class="cls-3" d="M75,38.2A3.17,3.17,0,1,1,71.86,35,3.16,3.16,0,0,1,75,38.2Z"/><path class="cls-3" d="M94.71,53.42a3.17,3.17,0,1,1-3.17-3.17A3.17,3.17,0,0,1,94.71,53.42Z"/><path class="cls-3" d="M22.94,58.73a3.17,3.17,0,1,1-3.16-3.16A3.16,3.16,0,0,1,22.94,58.73Z"/><path class="cls-4" d="M57.8,65.78a5.86,5.86,0,1,1-5.86-5.87A5.86,5.86,0,0,1,57.8,65.78Z"/><path class="cls-4" d="M57.73,118.69a3.89,3.89,0,1,1-3.88-3.88A3.89,3.89,0,0,1,57.73,118.69Z"/></g></g></g></g></g></svg>