<svg xmlns="http://www.w3.org/2000/svg" viewBox="0 0 105.78 160.74"><defs><style>.cls-1{fill:#bcbec0;}.cls-2{fill:#939598;}.cls-3{fill:#f1f2f2;}.cls-4{fill:#53a2d3;}.cls-5{opacity:0.1;}.cls-6{fill:#ccefff;}.cls-7{fill:#e6e7e8;}.cls-8{fill:#6d6e71;}.cls-9{fill:#3c3b3d;}</style></defs><title>Astronaut</title><g id="Layer_2" data-name="Layer 2"><g id="Space"><g id="Astronaut"><g id="Astronaut-2" data-name="Astronaut"><g id="Astronaut-3" data-name="Astronaut"><path class="cls-1" d="M77,35.09a1.3,1.3,0,0,1-1.3-1.3V24.41H69.33a1.3,1.3,0,1,1,0-2.6H77a1.3,1.3,0,0,1,1.3,1.3V33.79A1.3,1.3,0,0,1,77,35.09Z"/><rect class="cls-2" x="19.53" y="31.01" width="66.64" height="79.74" rx="3.26"/><path class="cls-3" d="M70.64,17.78A17.79,17.79,0,1,1,52.85,0,17.78,17.78,0,0,1,70.64,17.78Z"/><rect class="cls-3" x="35.07" y="17.78" width="35.57" height="20.44"/><path class="cls-4" d="M68.47,18.27c0,7-7,12.74-15.62,12.74S37.24,25.3,37.24,18.27s7-12.75,15.61-12.75S68.47,11.23,68.47,18.27Z"/><path class="cls-5" d="M57.92,6.21a11,11,0,0,1,2.21,6.53c0,7-7,12.75-15.61,12.75a18.59,18.59,0,0,1-5.07-.69C42.18,28.52,47.16,31,52.85,31c8.63,0,15.62-5.71,15.62-12.74C68.47,12.67,64.05,7.92,57.92,6.21Z"/><path class="cls-6" d="M48.34,14a3.83,3.83,0,1,1-3.82-3.82A3.82,3.82,0,0,1,48.34,14Z"/><path class="cls-6" d="M47,22.28a2,2,0,1,1-2-2A2,2,0,0,1,47,22.28Z"/><rect class="cls-7" x="5.49" y="38.22" width="31.75" height="12.25"/><path class="cls-7" d="M12.28,16.05A6.14,6.14,0,1,1,6.14,9.9,6.14,6.14,0,0,1,12.28,16.05Z"/><path class="cls-7" d="M14,18a1.69,1.69,0,1,1-3.37,0A1.69,1.69,0,0,1,14,18Z"/><rect class="cls-7" x="76.1" y="38.22" width="25.01" height="12.25"/><path class="cls-7" d="M105.78,72.64a6.14,6.14,0,1,0-6.14,6.14A6.14,6.14,0,0,0,105.78,72.64Z"/><path class="cls-7" d="M95.2,70.88a1.69,1.69,0,1,0-1.68,1.68A1.68,1.68,0,0,0,95.2,70.88Z"/><rect class="cls-7" x="25.89" y="95.02" width="19.15" height="62.89"/><rect class="cls-7" x="60.67" y="95.02" width="19.15" height="62.89"/><path class="cls-1" d="M35.46,147.37a11.2,11.2,0,0,0-11.2,11.2h22.4A11.19,11.19,0,0,0,35.46,147.37Z"/><rect class="cls-8" x="24.26" y="158.57" width="22.39" height="2.17"/><path class="cls-1" d="M70.25,147.37a11.19,11.19,0,0,0-11.2,11.2H81.44A11.19,11.19,0,0,0,70.25,147.37Z"/><rect class="cls-8" x="59.05" y="158.57" width="22.39" height="2.17"/><path class="cls-7" d="M105.76,54.64V39.52a1.3,1.3,0,0,0-1.3-1.3H94.82a1.3,1.3,0,0,0-1.3,1.3V54.64h0v18h12.28v-18Z"/><path class="cls-7" d="M0,34.05V49.16a1.31,1.31,0,0,0,1.3,1.31H11a1.31,1.31,0,0,0,1.3-1.31V34.05h0v-18H0v18Z"/><rect class="cls-7" x="25.89" y="38.22" width="53.94" height="61.23" rx="3.26"/><rect class="cls-1" x="51.85" y="38.22" width="2" height="61.23"/><rect class="cls-9" x="25.89" y="86.81" width="53.94" height="5.47"/><rect class="cls-9" x="47.6" y="84.64" width="10.51" height="9.81"/><rect class="cls-7" x="51.04" y="87.86" width="3.63" height="3.39"/></g></g></g></g></g></svg>