<svg xmlns="http://www.w3.org/2000/svg" viewBox="0 0 164.01 110.3"><defs><style>.cls-1{fill:#ff8d07;}.cls-2{fill:#ffb50f;}.cls-3{fill:#ffd66e;}.cls-4{fill:#fff;}</style></defs><title>Comet</title><g id="Layer_2" data-name="Layer 2"><g id="Space"><g id="Comet"><g id="Comet-2" data-name="Comet"><g id="Comet2"><path class="cls-1" d="M126.22,0,8.15,80.39a16.17,16.17,0,0,0-2.56,1.79,16,16,0,1,0,22.94,22Z"/><path class="cls-2" d="M112.68,11.58,9.2,82.1a14,14,0,1,0,15.91,22.78,15.24,15.24,0,0,0,1.89-2Z"/><path class="cls-3" d="M88.63,32.16,10.41,85.39a10.61,10.61,0,1,0,12.1,17.3,11.14,11.14,0,0,0,1.43-1.49Z"/><path class="cls-4" d="M22.53,88.72a8.09,8.09,0,1,1-11.4-.89A8.08,8.08,0,0,1,22.53,88.72Z"/></g><g id="Comet1"><path class="cls-1" d="M164,27.35,78.28,85.72A12.21,12.21,0,0,0,76.42,87,11.6,11.6,0,0,0,91.5,104.65,12.14,12.14,0,0,0,93.08,103Z"/><path class="cls-2" d="M154.18,35.76,79,87a10.34,10.34,0,0,0-1.63,1.13,10.13,10.13,0,1,0,13.18,15.4A10.94,10.94,0,0,0,92,102.07Z"/><path class="cls-3" d="M136.72,50.7,79.92,89.35a8.5,8.5,0,0,0-1.23.86,7.7,7.7,0,0,0,10,11.7,7.06,7.06,0,0,0,1-1.08Z"/><path class="cls-4" d="M88.72,91.77a5.87,5.87,0,1,1-8.28-.65A5.86,5.86,0,0,1,88.72,91.77Z"/></g></g></g></g></g></svg>