<svg xmlns="http://www.w3.org/2000/svg" viewBox="0 0 172.96 86.2"><defs><style>.cls-1{fill:#fff;}.cls-2{fill:#ff886e;}.cls-3{fill:#ffbd66;}.cls-4{fill:#ff5b74;}</style></defs><title>Constellations</title><g id="Layer_2" data-name="Layer 2"><g id="Space"><g id="Constellations"><g id="Constellations-2" data-name="Constellations"><g id="Constellations-3" data-name="Constellations"><path class="cls-1" d="M168.62,44.59,126.57,81.73,87.79,58l.47-.77-28.87.42-30.75.89-21.36,22-3-3L26.8,54.4l32.5-.94L88,53,140,2.32ZM126.11,76.48,163,43.88l-23.71-35L91.63,55.42Z"/><polygon class="cls-2" points="8.95 73.23 5.39 75.97 1.13 74.59 2.63 78.81 0 82.44 4.48 82.32 7.12 85.95 8.39 81.65 12.65 80.25 8.96 77.72 8.95 73.23"/><polygon class="cls-3" points="30.91 50.64 27.36 53.37 23.09 51.99 24.59 56.22 21.96 59.85 26.44 59.73 29.08 63.35 30.35 59.05 34.62 57.66 30.92 55.12 30.91 50.64"/><polygon class="cls-4" points="62.41 49.31 58.85 52.04 54.59 50.66 56.09 54.89 53.46 58.52 57.94 58.4 60.58 62.02 61.85 57.72 66.11 56.33 62.41 53.79 62.41 49.31"/><polygon class="cls-3" points="92.32 49.53 88.77 52.27 84.5 50.89 86 55.11 83.37 58.74 87.85 58.62 90.49 62.25 91.76 57.95 96.02 56.55 92.33 54.02 92.32 49.53"/><polygon class="cls-2" points="143.08 0 139.53 2.73 135.26 1.35 136.76 5.58 134.13 9.21 138.61 9.09 141.25 12.71 142.52 8.41 146.78 7.02 143.09 4.48 143.08 0"/><polygon class="cls-4" points="169.26 38.63 165.7 41.36 161.44 39.98 162.94 44.2 160.31 47.83 164.79 47.71 167.43 51.34 168.7 47.04 172.96 45.65 169.26 43.11 169.26 38.63"/><polygon class="cls-3" points="129.78 73.49 126.22 76.23 121.96 74.85 123.46 79.07 120.83 82.7 125.31 82.58 127.95 86.2 129.22 81.91 133.48 80.51 129.79 77.98 129.78 73.49"/></g></g></g></g></g></svg>