<svg xmlns="http://www.w3.org/2000/svg" viewBox="0 0 126.13 126.13"><defs><style>.cls-1{fill:#d1f4ff;}.cls-2,.cls-4{opacity:0.1;}.cls-3{fill:#a6cddd;}</style></defs><title>Moon</title><g id="Layer_2" data-name="Layer 2"><g id="Space"><g id="Moon"><g id="Moon-2" data-name="Moon"><g id="Moon-3" data-name="Moon"><circle class="cls-1" cx="63.06" cy="63.06" r="63.06" transform="translate(-11.39 112.16) rotate(-78.4)"/><path class="cls-2" d="M82.54,3.07A63.08,63.08,0,0,1,13.86,102.5,63.07,63.07,0,1,0,82.54,3.07Z"/><circle class="cls-3" cx="67.6" cy="54.48" r="11.97" transform="translate(-15.7 30.02) rotate(-22.5)"/><g class="cls-4"><path d="M70.56,45.61a11.92,11.92,0,0,1,7,2.29,12,12,0,1,0-17,16.26,12,12,0,0,1,10-18.55Z"/></g><circle class="cls-3" cx="96.31" cy="34.34" r="8.16"/><g class="cls-4"><path d="M98.33,28.3a8.1,8.1,0,0,1,4.8,1.56A8.16,8.16,0,1,0,91.51,41,8.17,8.17,0,0,1,98.33,28.3Z"/></g><path class="cls-3" d="M77.54,12a5.31,5.31,0,1,1-5.31-5.3A5.31,5.31,0,0,1,77.54,12Z"/><g class="cls-4"><path d="M73.54,8a5.3,5.3,0,0,1,3.13,1,5.31,5.31,0,1,0-7.56,7.2,5.25,5.25,0,0,1-.87-2.91A5.3,5.3,0,0,1,73.54,8Z"/></g><circle class="cls-3" cx="25.17" cy="72.69" r="8.16" transform="translate(-48.07 96.19) rotate(-88.7)"/><g class="cls-4"><path d="M27.19,66.64A8.15,8.15,0,0,1,32,68.2,8.16,8.16,0,1,0,20.37,79.29a8.16,8.16,0,0,1,6.82-12.65Z"/></g><path class="cls-3" d="M61.89,92.65a8.17,8.17,0,1,1-8.17-8.17A8.16,8.16,0,0,1,61.89,92.65Z"/><g class="cls-4"><path d="M55.74,86.6a8.1,8.1,0,0,1,4.8,1.56A8.16,8.16,0,1,0,48.92,99.25,8.17,8.17,0,0,1,55.74,86.6Z"/></g><path class="cls-3" d="M100.46,98.08a8.17,8.17,0,1,1-8.16-8.17A8.16,8.16,0,0,1,100.46,98.08Z"/><g class="cls-4"><path d="M94.32,92a8.15,8.15,0,0,1,4.8,1.56A8.16,8.16,0,1,0,87.5,104.68,8.16,8.16,0,0,1,94.32,92Z"/></g><path class="cls-3" d="M112.77,63.94a4.68,4.68,0,1,1-4.68-4.67A4.68,4.68,0,0,1,112.77,63.94Z"/><g class="cls-4"><path d="M109.25,60.48a4.66,4.66,0,0,1,2.75.89,4.67,4.67,0,1,0-6.65,6.35,4.67,4.67,0,0,1,3.9-7.24Z"/></g><path class="cls-3" d="M42.67,26.18A4.67,4.67,0,1,1,38,21.51,4.67,4.67,0,0,1,42.67,26.18Z"/><g class="cls-4"><path d="M39.16,22.72a4.68,4.68,0,0,1,2.75.89A4.68,4.68,0,1,0,35.25,30a4.68,4.68,0,0,1,3.91-7.24Z"/></g><path class="cls-3" d="M15,39.48A2.46,2.46,0,1,1,12.51,37,2.45,2.45,0,0,1,15,39.48Z"/><g class="cls-4"><path d="M13.11,37.66a2.51,2.51,0,0,1,1.45.47,2.46,2.46,0,0,0-4.51,1.35,2.42,2.42,0,0,0,1,2,2.38,2.38,0,0,1-.41-1.34A2.46,2.46,0,0,1,13.11,37.66Z"/></g><circle class="cls-3" cx="120.28" cy="78.39" r="2.45"/><g class="cls-4"><path d="M120.89,76.58a2.39,2.39,0,0,1,1.44.47,2.45,2.45,0,1,0-3.49,3.33,2.49,2.49,0,0,1-.4-1.35A2.45,2.45,0,0,1,120.89,76.58Z"/></g><path class="cls-3" d="M120.28,46.8a2.45,2.45,0,1,1-2.45-2.46A2.45,2.45,0,0,1,120.28,46.8Z"/><g class="cls-4"><path d="M118.44,45a2.41,2.41,0,0,1,1.44.47,2.45,2.45,0,1,0-3.49,3.33,2.42,2.42,0,0,1-.41-1.35A2.46,2.46,0,0,1,118.44,45Z"/></g><path class="cls-3" d="M25.17,93.79a2.46,2.46,0,1,1-2.46-2.45A2.46,2.46,0,0,1,25.17,93.79Z"/><g class="cls-4"><path d="M23.32,92a2.46,2.46,0,0,1,1.44.47,2.45,2.45,0,1,0-3.49,3.34,2.41,2.41,0,0,1-.4-1.35A2.45,2.45,0,0,1,23.32,92Z"/></g><path class="cls-3" d="M48,110.86a2.45,2.45,0,1,1-2.45-2.45A2.44,2.44,0,0,1,48,110.86Z"/><g class="cls-4"><path d="M46.17,109a2.46,2.46,0,0,1,1.44.47,2.45,2.45,0,1,0-3.49,3.34A2.45,2.45,0,0,1,46.17,109Z"/></g></g></g></g></g></g></svg>