<svg xmlns="http://www.w3.org/2000/svg" viewBox="0 0 99.82 181.44"><defs><style>.cls-1{fill:#fff;}.cls-2{fill:#ffdf3c;}.cls-3{fill:#ff8948;}.cls-4{fill:#e03643;}.cls-5{fill:#ff4f54;}.cls-6{fill:#002c40;}.cls-7{fill:#ededed;}.cls-8{fill:#bae3ff;}.cls-9{opacity:0.1;}</style></defs><title>Rocket</title><g id="Layer_2" data-name="Layer 2"><g id="Space"><g id="Rocket"><g id="Rocket-2" data-name="Rocket"><g id="Rocket-3" data-name="Rocket"><polygon class="cls-1" points="50.23 114.01 39.17 114.01 36.88 146.32 50.23 146.32 50.23 114.01"/><polygon class="cls-1" points="50.23 114.01 61.28 114.01 63.57 146.32 50.23 146.32 50.23 114.01"/><path class="cls-1" d="M52.45,130.52a6.22,6.22,0,1,1-6.22-6.23A6.23,6.23,0,0,1,52.45,130.52Z"/><path class="cls-1" d="M59.49,133.88a6.22,6.22,0,1,1-6.22-6.22A6.21,6.21,0,0,1,59.49,133.88Z"/><path class="cls-1" d="M52.45,140.1a6.22,6.22,0,1,1-6.22-6.22A6.22,6.22,0,0,1,52.45,140.1Z"/><path class="cls-1" d="M50.92,148.1a6.22,6.22,0,1,1-6.22-6.22A6.21,6.21,0,0,1,50.92,148.1Z"/><path class="cls-1" d="M62,148.1a6.22,6.22,0,1,1-6.22-6.22A6.22,6.22,0,0,1,62,148.1Z"/><path class="cls-1" d="M60.19,141.88A6.22,6.22,0,1,1,54,135.66,6.21,6.21,0,0,1,60.19,141.88Z"/><path class="cls-1" d="M60.19,153.31A6.22,6.22,0,1,1,54,147.08,6.22,6.22,0,0,1,60.19,153.31Z"/><path class="cls-1" d="M66.41,148.1a6.22,6.22,0,1,1-6.22-6.22A6.21,6.21,0,0,1,66.41,148.1Z"/><path class="cls-1" d="M43.81,146.32a6.22,6.22,0,1,1-6.22-6.22A6.21,6.21,0,0,1,43.81,146.32Z"/><path class="cls-1" d="M43.1,156.35a6.22,6.22,0,1,1-6.22-6.22A6.21,6.21,0,0,1,43.1,156.35Z"/><path class="cls-1" d="M38.81,164.85a5.06,5.06,0,1,1-5.06-5.06A5.06,5.06,0,0,1,38.81,164.85Z"/><path class="cls-1" d="M52.45,157.24A6.22,6.22,0,1,1,46.23,151,6.22,6.22,0,0,1,52.45,157.24Z"/><circle class="cls-1" cx="43.1" cy="170.48" r="10.96"/><path class="cls-1" d="M73.35,163.46A12.27,12.27,0,1,1,61.08,151.2,12.27,12.27,0,0,1,73.35,163.46Z"/><path class="cls-2" d="M55.75,119.53c0,3-2.47,12.8-5.52,12.8s-5.53-9.75-5.53-12.8a5.53,5.53,0,0,1,11,0Z"/><path class="cls-3" d="M54.11,118.66c0,2.15-1.74,9-3.88,9s-3.89-6.85-3.89-9a3.89,3.89,0,1,1,7.77,0Z"/><polygon class="cls-4" points="91.15 105.31 64.94 105.31 64.94 69.26 96.81 86.65 91.15 105.31"/><polygon class="cls-4" points="8.67 105.31 34.88 105.31 34.88 69.26 3.02 86.65 8.67 105.31"/><rect class="cls-1" x="30.66" y="26.78" width="39.13" height="82.55"/><path class="cls-5" d="M50.23,0S30.66,6.08,30.66,26.78H69.79C69.79,6.08,50.23,0,50.23,0Z"/><rect class="cls-6" x="33.75" y="109.33" width="32.95" height="7.28"/><rect class="cls-7" y="83.23" width="11.2" height="23.64"/><path class="cls-5" d="M5.6,75.56S0,77.3,0,83.23H11.2C11.2,77.3,5.6,75.56,5.6,75.56Z"/><rect class="cls-6" x="0.89" y="106.87" width="9.43" height="2.08"/><rect class="cls-7" x="88.62" y="83.23" width="11.2" height="23.64"/><path class="cls-5" d="M94.22,75.56s-5.6,1.74-5.6,7.67h11.2C99.82,77.3,94.22,75.56,94.22,75.56Z"/><rect class="cls-6" x="89.5" y="106.87" width="9.43" height="2.08"/><path class="cls-5" d="M61.84,45.71A11.62,11.62,0,1,1,50.23,34.09,11.61,11.61,0,0,1,61.84,45.71Z"/><circle class="cls-8" cx="50.23" cy="45.71" r="9.55"/><path class="cls-1" d="M49.69,41.25A2.27,2.27,0,1,1,47.42,39,2.27,2.27,0,0,1,49.69,41.25Z"/><path class="cls-9" d="M66.7,116.61v-7.28h3.09v-4H88.62v1.56h.88V109h9.44v-2.08h.88V83.23h0c0-5.93-5.6-7.67-5.6-7.67s-5,1.54-5.54,6.65L69.79,71.91V26.78C69.79,6.08,50.23,0,50.23,0V116.61Z"/></g></g></g></g></g></svg>