<svg width="415" height="285" xmlns="http://www.w3.org/2000/svg">
 <!-- Created with Method Draw - http://github.com/duopixel/Method-Draw/ -->

 <g>
  <title>background</title>
  <rect fill="none" id="canvas_background" height="287" width="417" y="-1" x="-1"/>
  <g display="none" overflow="visible" y="0" x="0" height="100%" width="100%" id="canvasGrid">
   <rect fill="url(#gridpattern)" stroke-width="0" y="0" x="0" height="100%" width="100%"/>
  </g>
 </g>
 <g>
  <title>Layer 1</title>
  <defs>
   <style>.cls-1{fill:#fff;}.cls-2{fill:#ffdf3c;}.cls-3{fill:#ff8948;}.cls-4{fill:#e03643;}.cls-5{fill:#ff4f54;}.cls-6{fill:#002c40;}.cls-7{fill:#ededed;}.cls-8{fill:#bae3ff;}.cls-9{opacity:0.1;}</style>
  </defs>
  <g transform="rotate(90 205.0491943359375,136.00000000000003) " id="svg_47">
   <g transform="matrix(1.7841952171750108,0,0,1.7841952171750108,0,0) " id="svg_8">
    <g id="svg_9">
     <g id="svg_10">
      <g id="svg_11">
       <g id="svg_12">
        <polygon id="svg_14" points="115.24532222747803,99.5148401260376 104.18532466888428,99.5148401260376 101.89533138275146,131.8248529434204 115.24532222747803,131.8248529434204 115.24532222747803,99.5148401260376 " class="cls-1"/>
        <polygon id="svg_15" points="115.24532222747803,99.5148401260376 126.29532527923584,99.5148401260376 128.58533382415771,131.8248529434204 115.24532222747803,131.8248529434204 115.24532222747803,99.5148401260376 " class="cls-1"/>
        <path id="svg_16" d="m117.46531,116.024848a6.22,6.22 0 1 1 -6.22,-6.23a6.23,6.23 0 0 1 6.22,6.23z" class="cls-1"/>
        <path id="svg_17" d="m124.50531,119.384848a6.22,6.22 0 1 1 -6.22,-6.22a6.21,6.21 0 0 1 6.22,6.22z" class="cls-1"/>
        <path id="svg_18" d="m117.46531,125.604848a6.22,6.22 0 1 1 -6.22,-6.22a6.22,6.22 0 0 1 6.22,6.22z" class="cls-1"/>
        <path id="svg_19" d="m115.93531,133.604848a6.22,6.22 0 1 1 -6.22,-6.22a6.21,6.21 0 0 1 6.22,6.22z" class="cls-1"/>
        <path id="svg_20" d="m127.01531,133.604848a6.22,6.22 0 1 1 -6.22,-6.22a6.22,6.22 0 0 1 6.22,6.22z" class="cls-1"/>
        <path id="svg_21" d="m125.20531,127.384848a6.22,6.22 0 1 1 -6.19,-6.22a6.21,6.21 0 0 1 6.19,6.22z" class="cls-1"/>
        <path id="svg_22" d="m125.20531,138.814848a6.22,6.22 0 1 1 -6.19,-6.23a6.22,6.22 0 0 1 6.19,6.23z" class="cls-1"/>
        <path id="svg_23" d="m131.42531,133.604848a6.22,6.22 0 1 1 -6.22,-6.22a6.21,6.21 0 0 1 6.22,6.22z" class="cls-1"/>
        <path id="svg_24" d="m108.82531,131.824848a6.22,6.22 0 1 1 -6.22,-6.22a6.21,6.21 0 0 1 6.22,6.22z" class="cls-1"/>
        <path id="svg_25" d="m108.11531,141.854848a6.22,6.22 0 1 1 -6.22,-6.22a6.21,6.21 0 0 1 6.22,6.22z" class="cls-1"/>
        <path id="svg_26" d="m103.82531,150.354848a5.06,5.06 0 1 1 -5.06,-5.06a5.06,5.06 0 0 1 5.06,5.06z" class="cls-1"/>
        <path id="svg_27" d="m117.46531,142.744848a6.22,6.22 0 1 1 -6.22,-6.24a6.22,6.22 0 0 1 6.22,6.24z" class="cls-1"/>
        <circle id="svg_28" r="10.96" cy="155.984848" cx="108.11531" class="cls-1"/>
        <path id="svg_29" d="m138.36531,148.964848a12.27,12.27 0 1 1 -12.27,-12.26a12.27,12.27 0 0 1 12.27,12.26z" class="cls-1"/>
        <path id="svg_30" d="m120.76531,105.034848c0,3 -2.47,12.8 -5.52,12.8s-5.53,-9.75 -5.53,-12.8a5.53,5.53 0 0 1 11,0l0.05,0z" class="cls-2"/>
        <path id="svg_31" d="m119.12531,104.164848c0,2.15 -1.74,9 -3.88,9s-3.89,-6.85 -3.89,-9a3.89,3.89 0 1 1 7.77,0z" class="cls-3"/>
        <polygon id="svg_32" points="156.16536617279053,90.81485080718994 129.95532894134521,90.81485080718994 129.95532894134521,54.76484394073486 161.8253698348999,72.15483951568604 156.16536617279053,90.81485080718994 " class="cls-4"/>
        <polygon id="svg_33" points="73.68529415130615,90.81485080718994 99.89533138275146,90.81485080718994 99.89533138275146,54.76484394073486 68.03526210784912,72.15483951568604 73.68529415130615,90.81485080718994 " class="cls-4"/>
        <rect id="svg_34" height="82.55" width="39.13" y="12.284848" x="95.67531" class="cls-1"/>
        <path id="svg_35" d="m115.24531,-14.495152s-19.57,6.08 -19.57,26.78l39.13,0c0,-20.7 -19.56,-26.78 -19.56,-26.78z" class="cls-5"/>
        <rect id="svg_36" height="7.28" width="32.95" y="94.834848" x="98.76531" class="cls-6"/>
        <rect x="65.01531" id="svg_37" height="23.64" width="11.2" y="68.734848" class="cls-7"/>
        <path id="svg_38" d="m70.61531,61.064848s-5.6,1.74 -5.6,7.67l11.2,0c0,-5.93 -5.6,-7.67 -5.6,-7.67z" class="cls-5"/>
        <rect id="svg_39" height="2.08" width="9.43" y="92.374848" x="65.90531" class="cls-6"/>
        <rect id="svg_40" height="23.64" width="11.2" y="68.734848" x="153.63531" class="cls-7"/>
        <path id="svg_41" d="m159.23531,61.064848s-5.6,1.74 -5.6,7.67l11.2,0c0,-5.93 -5.6,-7.67 -5.6,-7.67z" class="cls-5"/>
        <rect id="svg_42" height="2.08" width="9.43" y="92.374848" x="154.51531" class="cls-6"/>
        <path id="svg_43" d="m126.85531,31.214848a11.62,11.62 0 1 1 -11.61,-11.62a11.61,11.61 0 0 1 11.61,11.62z" class="cls-5"/>
        <circle id="svg_44" r="9.55" cy="31.214848" cx="115.24531" class="cls-8"/>
        <path id="svg_45" d="m114.70531,26.754848a2.27,2.27 0 1 1 -2.27,-2.25a2.27,2.27 0 0 1 2.27,2.25z" class="cls-1"/>
        <path id="svg_46" d="m131.71531,102.114848l0,-7.28l3.09,0l0,-4l18.83,0l0,1.56l0.88,0l0,2.11l9.44,0l0,-2.08l0.88,0l0,-23.69l0,0c0,-5.93 -5.6,-7.67 -5.6,-7.67s-5,1.54 -5.54,6.65l-18.89,-10.3l0,-45.13c0,-20.7 -19.56,-26.78 -19.56,-26.78l0,116.61l16.47,0z" class="cls-9"/>
       </g>
      </g>
     </g>
    </g>
   </g>
  </g>
 </g>
</svg>