<svg xmlns="http://www.w3.org/2000/svg" viewBox="0 0 182.83 118.11"><defs><style>.cls-1{fill:#f4c18a;}.cls-2{fill:#efb576;}.cls-3{fill:#e8b276;}.cls-4{fill:#fee3c5;}.cls-5{fill:#fec689;}.cls-6{fill:#c18448;}</style></defs><title>Saturn</title><g id="Layer_2" data-name="Layer 2"><g id="Space"><g id="Saturn"><g id="Saturn-2" data-name="Saturn"><g id="Saturn-3" data-name="Saturn"><path class="cls-1" d="M150.17,53.17A59,59,0,1,1,85.53.3,59,59,0,0,1,150.17,53.17Z"/><path class="cls-2" d="M69,55.87s34.32-2.19,66.21-36.39a59.53,59.53,0,0,0-16.18-12.6C112.35,20.75,98.21,38.19,69,55.87Z"/><path class="cls-3" d="M150.06,66.08c-28.43,26.54-60.92,40.43-82,47.24,1.82.78,3.67,1.47,5.57,2.07,13-3,35.12-10.06,51.29-24.92,0,0-6.9,16.37-32.28,27.63,1.53,0,3.07-.13,4.62-.29a59.11,59.11,0,0,0,12.88-2.75,86.8,86.8,0,0,0,15-11,31.45,31.45,0,0,1-3.36,5.56A59.16,59.16,0,0,0,150.06,66.08Z"/><path class="cls-4" d="M85.53.3A59.07,59.07,0,0,0,34,45.43c20.28-11,47.47-27,68.62-44.37A58.57,58.57,0,0,0,85.53.3Z"/><path class="cls-2" d="M107,55.53C92.51,70,62.66,81.87,40.64,89.22a58.92,58.92,0,0,0,4.26,6.22C91,78.11,107,55.53,107,55.53Z"/><path class="cls-5" d="M147,39.1c-16.2,18.6-50.25,51.36-96.74,62.3a59.06,59.06,0,0,0,11.44,8.68,58.16,58.16,0,0,0,6.4,3.24c21-6.81,53.53-20.7,82-47.24a58.83,58.83,0,0,0,.41-6.67,59.76,59.76,0,0,0-.3-6.24A58.78,58.78,0,0,0,147,39.1Z"/><path class="cls-5" d="M125,90.47c-16.17,14.86-38.31,21.89-51.29,24.92a58.91,58.91,0,0,0,19,2.71C118.06,106.84,125,90.47,125,90.47Z"/><path class="cls-1" d="M110.18,115.06a58.8,58.8,0,0,0,11.68-5.39,31.45,31.45,0,0,0,3.36-5.56A86.8,86.8,0,0,1,110.18,115.06Z"/><path class="cls-2" d="M125,37.39a57.16,57.16,0,0,0,16.92-9q-1.38-2.26-3-4.38A92.72,92.72,0,0,1,125,37.39Z"/><path class="cls-6" d="M182.44,13.65c-2.89-5.8-21.33-3-47,6a58.93,58.93,0,0,1,4.14,5.17c11.15-2.81,18.63-3,20.18.11s-3.1,9-12.05,16.19c-11.17,9-29,20.08-50,30.53s-40.55,18-54.46,21.56c-11.15,2.81-18.63,3-20.18-.11s3.1-9,12.05-16.19a58.39,58.39,0,0,1-1.64-6.41C10.83,85.62-2.5,98.65.39,104.46s21.33,3,47-6A469,469,0,0,0,99.81,75.88a469.07,469.07,0,0,0,49.53-28.3C172,32.5,185.34,19.46,182.44,13.65Z"/></g></g></g></g></g></svg>