<svg xmlns="http://www.w3.org/2000/svg" viewBox="0 0 81.7 176.4"><defs><style>.cls-1{fill:#fff;}.cls-2{fill:#ffdf3c;}.cls-3{fill:#ff8948;}.cls-4{fill:#e6e7e8;}.cls-5{fill:#939598;}.cls-6{fill:#58595b;}.cls-7{fill:#808285;}.cls-8{fill:#e03643;}.cls-9{fill:#a3dfff;}.cls-10{fill:#53a2d3;}.cls-11{fill:#f1f2f2;}.cls-12{fill:#d1d3d4;}.cls-13{fill:#3a3a3a;}</style></defs><title>Space Robot</title><g id="Layer_2" data-name="Layer 2"><g id="Space"><g id="Space_Robot" data-name="Space Robot"><g id="Spacecraft"><g id="Smoke"><polygon class="cls-1" points="40.64 105.75 29.06 105.75 26.66 139.61 40.64 139.61 40.64 105.75"/><polygon class="cls-1" points="40.64 105.75 52.23 105.75 54.63 139.61 40.64 139.61 40.64 105.75"/><path class="cls-1" d="M43,123a6.52,6.52,0,1,1-6.52-6.51A6.52,6.52,0,0,1,43,123Z"/><path class="cls-1" d="M50.35,126.57a6.52,6.52,0,1,1-6.51-6.52A6.51,6.51,0,0,1,50.35,126.57Z"/><path class="cls-1" d="M43,133.09a6.52,6.52,0,1,1-6.52-6.52A6.52,6.52,0,0,1,43,133.09Z"/><path class="cls-1" d="M41.38,141.47A6.52,6.52,0,1,1,34.86,135,6.52,6.52,0,0,1,41.38,141.47Z"/><path class="cls-1" d="M53,141.47A6.52,6.52,0,1,1,46.43,135,6.52,6.52,0,0,1,53,141.47Z"/><path class="cls-1" d="M51.09,135a6.52,6.52,0,1,1-6.52-6.52A6.52,6.52,0,0,1,51.09,135Z"/><path class="cls-1" d="M51.09,146.92a6.52,6.52,0,1,1-6.52-6.52A6.52,6.52,0,0,1,51.09,146.92Z"/><path class="cls-1" d="M57.6,141.47A6.52,6.52,0,1,1,51.09,135,6.51,6.51,0,0,1,57.6,141.47Z"/><path class="cls-1" d="M33.93,139.61a6.52,6.52,0,1,1-6.52-6.52A6.51,6.51,0,0,1,33.93,139.61Z"/><path class="cls-1" d="M33.18,150.12a6.52,6.52,0,1,1-6.52-6.52A6.52,6.52,0,0,1,33.18,150.12Z"/><path class="cls-1" d="M28.68,159a5.3,5.3,0,1,1-5.3-5.3A5.29,5.29,0,0,1,28.68,159Z"/><path class="cls-1" d="M43,151.05a6.52,6.52,0,1,1-6.52-6.52A6.51,6.51,0,0,1,43,151.05Z"/><path class="cls-1" d="M44.66,164.92a11.48,11.48,0,1,1-11.48-11.48A11.48,11.48,0,0,1,44.66,164.92Z"/><path class="cls-1" d="M64.87,157.56A12.85,12.85,0,1,1,52,144.71,12.85,12.85,0,0,1,64.87,157.56Z"/></g><g id="Fire"><path class="cls-2" d="M46.27,111.54c0,3.19-2.59,13.4-5.79,13.4s-5.78-10.21-5.78-13.4a5.79,5.79,0,1,1,11.57,0Z"/><path class="cls-3" d="M44.55,110.62c0,2.25-1.82,9.43-4.07,9.43s-4.07-7.18-4.07-9.43a4.07,4.07,0,0,1,8.14,0Z"/></g><g id="Spacecraft-2" data-name="Spacecraft"><path class="cls-4" d="M79.55,65.2,65.76,53.47a11.49,11.49,0,0,1-3-4.51L57.51,32.12c-.46-1.48-1.58-2.83-2.48-3l-.16,0H53.4V95.63a2,2,0,0,0,2.69,2l22.91-7A4,4,0,0,0,81.7,87V69.84A6.94,6.94,0,0,0,79.55,65.2Z"/><path class="cls-4" d="M26.82,29.1l-.15,0c-.9.17-2,1.52-2.48,3L18.92,49a11.49,11.49,0,0,1-3,4.51L2.14,65.2A7,7,0,0,0,0,69.84V87a4,4,0,0,0,2.69,3.63l22.92,7a2,2,0,0,0,2.69-2V29.1Z"/><path class="cls-5" d="M53.4,95.63a2,2,0,0,0,2.69,2l22.91-7A4,4,0,0,0,81.7,87H53.4Z"/><path class="cls-5" d="M2.69,90.65l22.92,7a2,2,0,0,0,2.69-2V87H0A4,4,0,0,0,2.69,90.65Z"/><rect class="cls-6" x="28.3" y="97.04" width="12.55" height="8.72" rx="1.41"/><rect class="cls-6" x="40.85" y="97.04" width="12.55" height="8.72" rx="1.41"/><rect class="cls-7" x="34.58" y="97.04" width="12.55" height="8.72" rx="1.41"/><rect class="cls-1" x="28.3" y="18.07" width="25.09" height="80.37"/><polygon class="cls-8" points="77.48 77.98 74.87 77.6 73.71 75.23 72.54 77.6 69.93 77.98 71.82 79.82 71.37 82.41 73.71 81.19 76.04 82.41 75.59 79.82 77.48 77.98"/><path class="cls-5" d="M40.85,0C32.25,0,28.3,18.07,28.3,18.07H53.4S49.45,0,40.85,0Z"/><path class="cls-9" d="M40.85,22.2a8.36,8.36,0,0,0-8.36,8.36H49.2A8.35,8.35,0,0,0,40.85,22.2Z"/><path class="cls-10" d="M11.17,78.82a3.36,3.36,0,1,1-3.36-3.36A3.36,3.36,0,0,1,11.17,78.82Z"/><rect class="cls-11" x="32.49" y="30.56" width="16.71" height="56.46"/><path class="cls-12" d="M43,99.55A1.41,1.41,0,0,0,44.4,101h9.73a1.41,1.41,0,0,0,1.41-1.41V90a2.59,2.59,0,0,0-1.25-2.07l-6-3.19a6.76,6.76,0,0,0-2.65-.65H44.4A1.41,1.41,0,0,0,43,85.47Z"/><path class="cls-12" d="M38.71,99.55A1.41,1.41,0,0,1,37.3,101H27.57a1.41,1.41,0,0,1-1.41-1.41V90a2.59,2.59,0,0,1,1.25-2.07l6-3.19a6.81,6.81,0,0,1,2.66-.65H37.3a1.41,1.41,0,0,1,1.41,1.4Z"/><rect class="cls-13" x="38.71" y="81.72" width="4.28" height="19.24" rx="1.41"/></g></g></g></g></g></svg>