<svg xmlns="http://www.w3.org/2000/svg" viewBox="0 0 157.31 169.09"><defs><style>.cls-1{fill:#fff;}</style></defs><title>Stars</title><g id="Layer_2" data-name="Layer 2"><g id="Space"><g id="Moon_Crestcent" data-name="Moon Crestcent"><g id="Moon_Crestcent-2" data-name="Moon Crestcent"><g id="Star"><path class="cls-1" d="M154.46,35.36a7.21,7.21,0,0,1-9.68-3.21,7.21,7.21,0,0,1-3.21,9.68A7.21,7.21,0,0,1,151.25,45,7.21,7.21,0,0,1,154.46,35.36Z"/><path class="cls-1" d="M47.57,165.31a9,9,0,0,1-3.79-12.09A9,9,0,0,1,31.69,157a9,9,0,0,1,3.78,12.09A9,9,0,0,1,47.57,165.31Z"/><path class="cls-1" d="M58.78,1.47A4.54,4.54,0,0,1,52.53,0a4.54,4.54,0,0,1-1.47,6.25,4.54,4.54,0,0,1,6.25,1.46A4.53,4.53,0,0,1,58.78,1.47Z"/><ellipse class="cls-1" cx="21.96" cy="59.52" rx="9.84" ry="2.31" transform="translate(-41 67.3) rotate(-76.8)"/><path class="cls-1" d="M157.31,86.84a3.36,3.36,0,0,1-4.62-1.08,3.36,3.36,0,0,1-1.08,4.62,3.36,3.36,0,0,1,4.62,1.08A3.35,3.35,0,0,1,157.31,86.84Z"/><path class="cls-1" d="M7.71,90.08a4.53,4.53,0,0,1-6.24-1.47A4.54,4.54,0,0,1,0,94.86a4.54,4.54,0,0,1,6.25,1.46A4.53,4.53,0,0,1,7.71,90.08Z"/><path class="cls-1" d="M151.87,108a4.54,4.54,0,0,1-6.25-1.47,4.54,4.54,0,0,1-1.46,6.25,4.54,4.54,0,0,1,6.25,1.46A4.53,4.53,0,0,1,151.87,108Z"/></g></g></g></g></g></svg>