<svg xmlns="http://www.w3.org/2000/svg" viewBox="0 0 150.39 146.7"><defs><style>.cls-1{fill:#d2d3d4;}.cls-2{fill:#f15c4d;}.cls-3{fill:#9edbf0;}.cls-4{fill:#7cd0e0;}.cls-5{fill:#f1607f;}.cls-6{fill:#002c40;}.cls-7{fill:#d8f0fa;}.cls-8{fill:#fff;}</style></defs><title>Telescope</title><g id="Layer_2" data-name="Layer 2"><g id="Space"><g id="Telescope"><g id="Telescope-2" data-name="Telescope"><g id="Telescope-3" data-name="Telescope"><rect class="cls-1" x="63.56" y="57.94" width="6.48" height="22.08"/><rect class="cls-1" x="63.56" y="79.66" width="6.48" height="67.04"/><polygon class="cls-1" points="37.94 146.35 56.39 80.01 62.63 81.74 44.75 146.35 37.94 146.35"/><polygon class="cls-1" points="95.88 146.35 77.43 80.01 71.19 81.74 89.06 146.35 95.88 146.35"/><path class="cls-2" d="M73.37,80a6.58,6.58,0,1,1-6.57-6.58A6.58,6.58,0,0,1,73.37,80Z"/><rect class="cls-2" x="55.5" y="76.78" width="22.6" height="6.48"/><rect class="cls-3" x="21.49" y="5.54" width="40.51" height="58.08" transform="translate(-5 62.02) rotate(-70.05)"/><rect class="cls-4" x="69.72" y="31.19" width="36.58" height="40.36" transform="translate(9.7 116.58) rotate(-70.05)"/><rect class="cls-5" x="118.73" y="44.95" width="14.4" height="40.36" transform="translate(21.75 161.29) rotate(-70.05)"/><path class="cls-6" d="M16.37,0,18.7.85a4.14,4.14,0,0,1,2.47,5.29L7.72,43.2a4.14,4.14,0,0,1-5.29,2.48L.1,44.83Z"/><path class="cls-6" d="M149,62.19a1.94,1.94,0,0,1,1.34,2.35l-6.05,16.67a1.94,1.94,0,0,1-2.54,1l-.44-.16,7.25-20Z"/><rect class="cls-7" x="44.8" y="-7.98" width="4.5" height="54.84" transform="translate(12.73 57.04) rotate(-70.06)"/><rect class="cls-7" x="90.66" y="20.29" width="4.5" height="36.38" transform="translate(25.03 112.68) rotate(-70.04)"/><path class="cls-8" d="M8.23,22.42h0l8-22s-3.22.7-10.59,21h0C-1.77,41.78.26,44.39.26,44.39l8-22h0Z"/></g></g></g></g></g></svg>