<svg xmlns="http://www.w3.org/2000/svg" viewBox="0 0 168.96 117.17"><defs><style>.cls-1{fill:#0f171f;}.cls-2{fill:#e43d25;}.cls-3{fill:#f0512f;}.cls-4{fill:#9edbf0;}.cls-5{fill:#010101;opacity:0.1;}.cls-6{fill:#fff;}</style></defs><title>Ufo</title><g id="Layer_2" data-name="Layer 2"><g id="Space"><g id="Ufo"><g id="Ufo-2" data-name="Ufo"><g id="Ufo-3" data-name="Ufo"><rect class="cls-1" x="43.36" y="76.5" width="3.97" height="36.34"/><path class="cls-1" d="M49.68,112.84a4.34,4.34,0,1,1-4.34-4.33A4.33,4.33,0,0,1,49.68,112.84Z"/><rect class="cls-1" x="119.94" y="76.5" width="3.97" height="36.34"/><path class="cls-1" d="M126.26,112.84a4.33,4.33,0,1,1-4.33-4.33A4.33,4.33,0,0,1,126.26,112.84Z"/><path class="cls-2" d="M84.48,76.5,0,62.84S2.46,90.16,84.48,90.16,169,62.84,169,62.84Z"/><path class="cls-3" d="M169,61.41c0,11.07-37.83,20-84.48,20S0,72.48,0,61.41s37.82-20,84.48-20S169,50.35,169,61.41Z"/><path class="cls-3" d="M169,61.41c0,11.07-37.83,20-84.48,20S0,72.48,0,61.41s37.82-20,84.48-20S169,50.35,169,61.41Z"/><path class="cls-4" d="M122.16,23.44h0a42,42,0,0,0-75.36,0h0a42.07,42.07,0,0,0-.63,35.8,323.15,323.15,0,0,0,38.31,2.17,323,323,0,0,0,38.3-2.17,42.12,42.12,0,0,0-.62-35.8Z"/><polygon class="cls-4" points="66.35 60.95 66.35 60.95 66.35 60.95 66.35 60.95"/><path class="cls-5" d="M122.16,23.44h0A42.21,42.21,0,0,0,110.73,9.22,62.8,62.8,0,0,0,90.18,19.6a10.47,10.47,0,1,1-14,15.34,66.57,66.57,0,0,0-9.84,26h0c5.84.3,11.9.46,18.13.46a323,323,0,0,0,38.3-2.17,42.12,42.12,0,0,0-.62-35.8Z"/><path class="cls-6" d="M28.26,57.75C28.26,59.52,25,61,21,61s-7.22-1.43-7.22-3.2,3.24-3.2,7.22-3.2S28.26,56,28.26,57.75Z"/><path class="cls-6" d="M151.08,57.75c0,1.77-3.23,3.2-7.22,3.2s-7.22-1.43-7.22-3.2,3.23-3.2,7.22-3.2S151.08,56,151.08,57.75Z"/><ellipse class="cls-6" cx="45.34" cy="68.1" rx="7.22" ry="3.2"/><ellipse class="cls-6" cx="121.93" cy="68.1" rx="7.22" ry="3.2"/><path class="cls-6" d="M91.7,71.3c0,1.77-3.23,3.2-7.22,3.2s-7.22-1.43-7.22-3.2,3.23-3.2,7.22-3.2S91.7,69.53,91.7,71.3Z"/></g></g></g></g></g></svg>